<svg xmlns="http://www.w3.org/2000/svg"
     viewBox="0 0 188 189"
     width="188"
     height="189">
    <g fill="None"
       fill-opacity="0.0"
       stroke="#FDFEFD"
       stroke-opacity="1.00"
       stroke-width="0.3">
        <path d="&#xA;M 0.00 189.00 &#xA;L 77.00 189.00&#xA;C 57.03 182.30 37.98 176.14 24.30 159.70 C 10.62 143.26 1.24 122.21 1.00 101.00 C 0.76 79.79 4.81 50.31 22.00 37.00&#xA;C 22.41 36.40 22.61 35.56 23.00 35.00&#xA;C 36.58 15.17 62.06 2.57 87.00 0.00&#xA;L 0.00 0.00&#xA;L 0.00 189.00 Z" />
    </g>
    <g fill="None"
       fill-opacity="0.0"
       stroke="#D5F9FD"
       stroke-opacity="1.00"
       stroke-width="0.3">
        <path d="&#xA;M 23.00 35.00 &#xA;C 42.62 13.97 67.76 0.56 97.00 2.00 C 126.24 3.44 147.86 15.58 167.25 38.75 C 186.64 61.91 186.71 94.33 182.00 123.00&#xA;C 191.35 112.09 186.18 90.71 185.67 77.33 C 185.17 63.95 176.53 51.20 170.08 39.92 C 163.63 28.64 153.97 22.36 143.30 14.70 C 132.64 7.03 117.83 2.81 105.00 0.00&#xA;L 87.00 0.00&#xA;C 62.06 2.57 36.58 15.17 23.00 35.00 Z" />
    </g>
    <g fill="None"
       fill-opacity="0.0"
       stroke="#FDFEFE"
       stroke-opacity="1.00"
       stroke-width="0.3">
        <path d="&#xA;M 182.00 123.00 &#xA;C 181.92 123.49 182.00 124.00 182.00 124.00&#xA;C 182.50 131.44 177.78 137.75 174.70 143.70 C 171.61 149.64 164.79 153.37 167.00 158.00&#xA;C 156.07 163.04 147.99 177.09 135.00 179.00&#xA;C 133.86 179.28 133.12 179.58 132.00 180.00&#xA;C 128.22 182.07 124.74 184.82 120.00 185.00&#xA;C 119.50 185.02 119.00 185.00 119.00 185.00&#xA;C 115.47 187.87 109.79 187.32 106.00 189.00&#xA;L 188.00 189.00&#xA;L 188.00 0.00&#xA;L 105.00 0.00&#xA;C 117.83 2.81 132.64 7.03 143.30 14.70 C 153.97 22.36 163.63 28.64 170.08 39.92 C 176.53 51.20 185.17 63.95 185.67 77.33 C 186.18 90.71 191.35 112.09 182.00 123.00 Z" />
    </g>
    <g fill="None"
       fill-opacity="0.0"
       stroke="#2EA9DE"
       stroke-opacity="1.00"
       stroke-width="0.3">
        <path d="&#xA;M 23.00 35.00 &#xA;C 22.61 35.56 22.41 36.40 22.00 37.00&#xA;C 15.93 45.87 10.94 53.28 7.68 63.68 C 4.41 74.07 0.77 88.49 2.00 100.00 C 3.23 111.51 5.39 122.96 9.93 133.07 C 14.46 143.18 19.38 150.02 26.75 158.25 C 34.13 166.47 39.88 170.61 49.25 176.75 C 58.62 182.90 69.76 183.42 81.01 186.99 C 92.25 190.56 108.02 184.26 119.00 185.00&#xA;C 119.00 185.00 119.50 185.02 120.00 185.00&#xA;C 123.11 182.33 128.10 181.47 132.00 180.00&#xA;C 133.12 179.58 133.86 179.28 135.00 179.00&#xA;C 145.73 173.35 153.79 164.87 163.25 156.25 C 172.70 147.63 174.40 132.85 182.00 124.00&#xA;C 182.00 124.00 181.92 123.49 182.00 123.00&#xA;C 186.71 94.33 186.64 61.91 167.25 38.75 C 147.86 15.58 126.24 3.44 97.00 2.00 C 67.76 0.56 42.62 13.97 23.00 35.00&#xA;M 97.00 47.00 &#xA;C 113.13 50.03 106.70 77.29 91.00 73.00 C 75.30 68.71 80.19 43.84 97.00 47.00&#xA;M 147.00 101.00 &#xA;C 162.48 110.08 161.85 132.14 148.75 142.75 C 135.65 153.37 113.39 155.19 103.00 141.00&#xA;C 110.39 145.51 122.41 143.98 130.22 143.22 C 138.03 142.46 145.90 136.77 149.92 130.92 C 153.94 125.07 155.37 111.52 146.75 108.25 C 138.14 104.98 130.01 100.07 141.08 96.08 C 152.14 92.09 152.72 90.67 160.25 84.25 C 167.78 77.82 163.43 67.52 155.92 64.08 C 148.41 60.64 137.54 64.02 131.75 69.75 C 125.97 75.49 122.15 81.34 119.08 89.08 C 116.00 96.81 111.92 101.48 109.23 110.23 C 106.54 118.98 102.83 122.92 100.23 133.23 C 97.62 143.54 90.49 143.24 88.22 132.78 C 85.95 122.31 81.49 119.12 78.69 110.31 C 75.90 101.49 71.89 97.25 68.70 89.30 C 65.51 81.36 61.74 76.63 55.75 70.25 C 49.76 63.87 40.77 61.46 32.78 64.78 C 24.79 68.09 20.04 77.67 27.75 84.25 C 35.47 90.82 35.86 92.94 46.68 96.32 C 57.50 99.70 50.80 105.88 42.25 109.25 C 33.71 112.63 34.10 125.93 38.77 132.23 C 43.44 138.53 51.09 142.51 59.07 143.93 C 67.05 145.34 78.49 145.28 86.00 141.00&#xA;C 75.40 155.70 54.33 154.04 40.75 143.25 C 27.18 132.46 25.65 110.39 42.00 101.00&#xA;C 35.13 99.81 30.42 95.47 25.25 90.75 C 20.07 86.03 16.44 78.40 18.33 71.33 C 20.22 64.26 25.28 60.61 31.69 57.69 C 38.11 54.78 48.31 56.27 54.08 59.92 C 59.84 63.58 64.00 67.97 67.75 73.25 C 71.50 78.52 73.71 85.81 76.92 91.08 C 80.14 96.34 81.98 106.27 85.31 110.69 C 88.63 115.12 89.34 127.51 93.75 129.25 C 98.17 130.98 100.09 116.48 102.32 112.32 C 104.56 108.16 107.76 97.79 110.77 92.77 C 113.78 87.75 115.74 79.69 119.77 74.77 C 123.81 69.85 126.50 64.32 132.25 60.25 C 138.00 56.17 148.41 54.84 155.22 56.78 C 162.04 58.72 166.86 62.81 169.31 69.69 C 171.75 76.58 168.52 84.54 163.75 89.75 C 158.98 94.96 152.76 97.38 147.00 101.00 Z" />
    </g>
    <g fill="None"
       fill-opacity="0.0"
       stroke="#D1F7FC"
       stroke-opacity="1.00"
       stroke-width="0.3">
        <path d="&#xA;M 77.00 189.00 &#xA;L 106.00 189.00&#xA;C 109.79 187.32 115.47 187.87 119.00 185.00&#xA;C 108.02 184.26 92.25 190.56 81.01 186.99 C 69.76 183.42 58.62 182.90 49.25 176.75 C 39.88 170.61 34.13 166.47 26.75 158.25 C 19.38 150.02 14.46 143.18 9.93 133.07 C 5.39 122.96 3.23 111.51 2.00 100.00 C 0.77 88.49 4.41 74.07 7.68 63.68 C 10.94 53.28 15.93 45.87 22.00 37.00&#xA;C 4.81 50.31 0.76 79.79 1.00 101.00 C 1.24 122.21 10.62 143.26 24.30 159.70 C 37.98 176.14 57.03 182.30 77.00 189.00 Z" />
    </g>
    <g fill="None"
       fill-opacity="0.0"
       stroke="#DDF9FC"
       stroke-opacity="1.00"
       stroke-width="0.3">
        <path d="&#xA;M 97.00 47.00 &#xA;C 80.19 43.84 75.30 68.71 91.00 73.00 C 106.70 77.29 113.13 50.03 97.00 47.00&#xA;M 96.00 52.00 &#xA;C 104.91 54.07 101.49 69.85 92.00 67.00 C 82.51 64.15 87.26 49.97 96.00 52.00 Z" />
    </g>
    <g fill="None"
       fill-opacity="0.0"
       stroke="#3EA9D7"
       stroke-opacity="1.00"
       stroke-width="0.3">
        <path d="&#xA;M 96.00 52.00 &#xA;C 87.26 49.97 82.51 64.15 92.00 67.00 C 101.49 69.85 104.91 54.07 96.00 52.00 Z" />
    </g>
    <g fill="None"
       fill-opacity="0.0"
       stroke="#E4FAFC"
       stroke-opacity="1.00"
       stroke-width="0.3">
        <path d="&#xA;M 147.00 101.00 &#xA;C 152.76 97.38 158.98 94.96 163.75 89.75 C 168.52 84.54 171.75 76.58 169.31 69.69 C 166.86 62.81 162.04 58.72 155.22 56.78 C 148.41 54.84 138.00 56.17 132.25 60.25 C 126.50 64.32 123.81 69.85 119.77 74.77 C 115.74 79.69 113.78 87.75 110.77 92.77 C 107.76 97.79 104.56 108.16 102.32 112.32 C 100.09 116.48 98.17 130.98 93.75 129.25 C 89.34 127.51 88.63 115.12 85.31 110.69 C 81.98 106.27 80.14 96.34 76.92 91.08 C 73.71 85.81 71.50 78.52 67.75 73.25 C 64.00 67.97 59.84 63.58 54.08 59.92 C 48.31 56.27 38.11 54.78 31.69 57.69 C 25.28 60.61 20.22 64.26 18.33 71.33 C 16.44 78.40 20.07 86.03 25.25 90.75 C 30.42 95.47 35.13 99.81 42.00 101.00&#xA;C 25.65 110.39 27.18 132.46 40.75 143.25 C 54.33 154.04 75.40 155.70 86.00 141.00&#xA;C 78.49 145.28 67.05 145.34 59.07 143.93 C 51.09 142.51 43.44 138.53 38.77 132.23 C 34.10 125.93 33.71 112.63 42.25 109.25 C 50.80 105.88 57.50 99.70 46.68 96.32 C 35.86 92.94 35.47 90.82 27.75 84.25 C 20.04 77.67 24.79 68.09 32.78 64.78 C 40.77 61.46 49.76 63.87 55.75 70.25 C 61.74 76.63 65.51 81.36 68.70 89.30 C 71.89 97.25 75.90 101.49 78.69 110.31 C 81.49 119.12 85.95 122.31 88.22 132.78 C 90.49 143.24 97.62 143.54 100.23 133.23 C 102.83 122.92 106.54 118.98 109.23 110.23 C 111.92 101.48 116.00 96.81 119.08 89.08 C 122.15 81.34 125.97 75.49 131.75 69.75 C 137.54 64.02 148.41 60.64 155.92 64.08 C 163.43 67.52 167.78 77.82 160.25 84.25 C 152.72 90.67 152.14 92.09 141.08 96.08 C 130.01 100.07 138.14 104.98 146.75 108.25 C 155.37 111.52 153.94 125.07 149.92 130.92 C 145.90 136.77 138.03 142.46 130.22 143.22 C 122.41 143.98 110.39 145.51 103.00 141.00&#xA;C 113.39 155.19 135.65 153.37 148.75 142.75 C 161.85 132.14 162.48 110.08 147.00 101.00 Z" />
    </g>
    <g fill="None"
       fill-opacity="0.0"
       stroke="#D9F8FD"
       stroke-opacity="1.00"
       stroke-width="0.3">
        <path d="&#xA;M 135.00 179.00 &#xA;C 147.99 177.09 156.07 163.04 167.00 158.00&#xA;C 164.79 153.37 171.61 149.64 174.70 143.70 C 177.78 137.75 182.50 131.44 182.00 124.00&#xA;C 174.40 132.85 172.70 147.63 163.25 156.25 C 153.79 164.87 145.73 173.35 135.00 179.00 Z" />
    </g>
    <g fill="None"
       fill-opacity="0.0"
       stroke="#C2F2FA"
       stroke-opacity="1.00"
       stroke-width="0.3">
        <path d="&#xA;M 120.00 185.00 &#xA;C 124.74 184.82 128.22 182.07 132.00 180.00&#xA;C 128.10 181.47 123.11 182.33 120.00 185.00 Z" />
    </g>
    <g fill="#FDFEFD"
       fill-opacity="1.00"
       stroke="None">
        <path d="&#xA;M 0.00 189.00 &#xA;L 77.00 189.00&#xA;C 57.03 182.30 37.98 176.14 24.30 159.70 C 10.62 143.26 1.24 122.21 1.00 101.00 C 0.76 79.79 4.81 50.31 22.00 37.00&#xA;C 22.41 36.40 22.61 35.56 23.00 35.00&#xA;C 36.58 15.17 62.06 2.57 87.00 0.00&#xA;L 0.00 0.00&#xA;L 0.00 189.00 Z" />
    </g>
    <g fill="#D5F9FD"
       fill-opacity="1.00"
       stroke="None">
        <path d="&#xA;M 23.00 35.00 &#xA;C 42.62 13.97 67.76 0.56 97.00 2.00 C 126.24 3.44 147.86 15.58 167.25 38.75 C 186.64 61.91 186.71 94.33 182.00 123.00&#xA;C 191.35 112.09 186.18 90.71 185.67 77.33 C 185.17 63.95 176.53 51.20 170.08 39.92 C 163.63 28.64 153.97 22.36 143.30 14.70 C 132.64 7.03 117.83 2.81 105.00 0.00&#xA;L 87.00 0.00&#xA;C 62.06 2.57 36.58 15.17 23.00 35.00 Z" />
    </g>
    <g fill="#FDFEFE"
       fill-opacity="1.00"
       stroke="None">
        <path d="&#xA;M 182.00 123.00 &#xA;C 181.92 123.49 182.00 124.00 182.00 124.00&#xA;C 182.50 131.44 177.78 137.75 174.70 143.70 C 171.61 149.64 164.79 153.37 167.00 158.00&#xA;C 156.07 163.04 147.99 177.09 135.00 179.00&#xA;C 133.86 179.28 133.12 179.58 132.00 180.00&#xA;C 128.22 182.07 124.74 184.82 120.00 185.00&#xA;C 119.50 185.02 119.00 185.00 119.00 185.00&#xA;C 115.47 187.87 109.79 187.32 106.00 189.00&#xA;L 188.00 189.00&#xA;L 188.00 0.00&#xA;L 105.00 0.00&#xA;C 117.83 2.81 132.64 7.03 143.30 14.70 C 153.97 22.36 163.63 28.64 170.08 39.92 C 176.53 51.20 185.17 63.95 185.67 77.33 C 186.18 90.71 191.35 112.09 182.00 123.00 Z" />
    </g>
    <g fill="#2EA9DE"
       fill-opacity="1.00"
       stroke="None">
        <path d="&#xA;M 23.00 35.00 &#xA;C 22.61 35.56 22.41 36.40 22.00 37.00&#xA;C 15.93 45.87 10.94 53.28 7.68 63.68 C 4.41 74.07 0.77 88.49 2.00 100.00 C 3.23 111.51 5.39 122.96 9.93 133.07 C 14.46 143.18 19.38 150.02 26.75 158.25 C 34.13 166.47 39.88 170.61 49.25 176.75 C 58.62 182.90 69.76 183.42 81.01 186.99 C 92.25 190.56 108.02 184.26 119.00 185.00&#xA;C 119.00 185.00 119.50 185.02 120.00 185.00&#xA;C 123.11 182.33 128.10 181.47 132.00 180.00&#xA;C 133.12 179.58 133.86 179.28 135.00 179.00&#xA;C 145.73 173.35 153.79 164.87 163.25 156.25 C 172.70 147.63 174.40 132.85 182.00 124.00&#xA;C 182.00 124.00 181.92 123.49 182.00 123.00&#xA;C 186.71 94.33 186.64 61.91 167.25 38.75 C 147.86 15.58 126.24 3.44 97.00 2.00 C 67.76 0.56 42.62 13.97 23.00 35.00&#xA;M 97.00 47.00 &#xA;C 113.13 50.03 106.70 77.29 91.00 73.00 C 75.30 68.71 80.19 43.84 97.00 47.00&#xA;M 147.00 101.00 &#xA;C 162.48 110.08 161.85 132.14 148.75 142.75 C 135.65 153.37 113.39 155.19 103.00 141.00&#xA;C 110.39 145.51 122.41 143.98 130.22 143.22 C 138.03 142.46 145.90 136.77 149.92 130.92 C 153.94 125.07 155.37 111.52 146.75 108.25 C 138.14 104.98 130.01 100.07 141.08 96.08 C 152.14 92.09 152.72 90.67 160.25 84.25 C 167.78 77.82 163.43 67.52 155.92 64.08 C 148.41 60.64 137.54 64.02 131.75 69.75 C 125.97 75.49 122.15 81.34 119.08 89.08 C 116.00 96.81 111.92 101.48 109.23 110.23 C 106.54 118.98 102.83 122.92 100.23 133.23 C 97.62 143.54 90.49 143.24 88.22 132.78 C 85.95 122.31 81.49 119.12 78.69 110.31 C 75.90 101.49 71.89 97.25 68.70 89.30 C 65.51 81.36 61.74 76.63 55.75 70.25 C 49.76 63.87 40.77 61.46 32.78 64.78 C 24.79 68.09 20.04 77.67 27.75 84.25 C 35.47 90.82 35.86 92.94 46.68 96.32 C 57.50 99.70 50.80 105.88 42.25 109.25 C 33.71 112.63 34.10 125.93 38.77 132.23 C 43.44 138.53 51.09 142.51 59.07 143.93 C 67.05 145.34 78.49 145.28 86.00 141.00&#xA;C 75.40 155.70 54.33 154.04 40.75 143.25 C 27.18 132.46 25.65 110.39 42.00 101.00&#xA;C 35.13 99.81 30.42 95.47 25.25 90.75 C 20.07 86.03 16.44 78.40 18.33 71.33 C 20.22 64.26 25.28 60.61 31.69 57.69 C 38.11 54.78 48.31 56.27 54.08 59.92 C 59.84 63.58 64.00 67.97 67.75 73.25 C 71.50 78.52 73.71 85.81 76.92 91.08 C 80.14 96.34 81.98 106.27 85.31 110.69 C 88.63 115.12 89.34 127.51 93.75 129.25 C 98.17 130.98 100.09 116.48 102.32 112.32 C 104.56 108.16 107.76 97.79 110.77 92.77 C 113.78 87.75 115.74 79.69 119.77 74.77 C 123.81 69.85 126.50 64.32 132.25 60.25 C 138.00 56.17 148.41 54.84 155.22 56.78 C 162.04 58.72 166.86 62.81 169.31 69.69 C 171.75 76.58 168.52 84.54 163.75 89.75 C 158.98 94.96 152.76 97.38 147.00 101.00 Z" />
    </g>
    <g fill="#D1F7FC"
       fill-opacity="1.00"
       stroke="None">
        <path d="&#xA;M 77.00 189.00 &#xA;L 106.00 189.00&#xA;C 109.79 187.32 115.47 187.87 119.00 185.00&#xA;C 108.02 184.26 92.25 190.56 81.01 186.99 C 69.76 183.42 58.62 182.90 49.25 176.75 C 39.88 170.61 34.13 166.47 26.75 158.25 C 19.38 150.02 14.46 143.18 9.93 133.07 C 5.39 122.96 3.23 111.51 2.00 100.00 C 0.77 88.49 4.41 74.07 7.68 63.68 C 10.94 53.28 15.93 45.87 22.00 37.00&#xA;C 4.81 50.31 0.76 79.79 1.00 101.00 C 1.24 122.21 10.62 143.26 24.30 159.70 C 37.98 176.14 57.03 182.30 77.00 189.00 Z" />
    </g>
    <g fill="#DDF9FC"
       fill-opacity="1.00"
       stroke="None">
        <path d="&#xA;M 97.00 47.00 &#xA;C 80.19 43.84 75.30 68.71 91.00 73.00 C 106.70 77.29 113.13 50.03 97.00 47.00&#xA;M 96.00 52.00 &#xA;C 104.91 54.07 101.49 69.85 92.00 67.00 C 82.51 64.15 87.26 49.97 96.00 52.00 Z" />
    </g>
    <g fill="#3EA9D7"
       fill-opacity="1.00"
       stroke="None">
        <path d="&#xA;M 96.00 52.00 &#xA;C 87.26 49.97 82.51 64.15 92.00 67.00 C 101.49 69.85 104.91 54.07 96.00 52.00 Z" />
    </g>
    <g fill="#E4FAFC"
       fill-opacity="1.00"
       stroke="None">
        <path d="&#xA;M 147.00 101.00 &#xA;C 152.76 97.38 158.98 94.96 163.75 89.75 C 168.52 84.54 171.75 76.58 169.31 69.69 C 166.86 62.81 162.04 58.72 155.22 56.78 C 148.41 54.84 138.00 56.17 132.25 60.25 C 126.50 64.32 123.81 69.85 119.77 74.77 C 115.74 79.69 113.78 87.75 110.77 92.77 C 107.76 97.79 104.56 108.16 102.32 112.32 C 100.09 116.48 98.17 130.98 93.75 129.25 C 89.34 127.51 88.63 115.12 85.31 110.69 C 81.98 106.27 80.14 96.34 76.92 91.08 C 73.71 85.81 71.50 78.52 67.75 73.25 C 64.00 67.97 59.84 63.58 54.08 59.92 C 48.31 56.27 38.11 54.78 31.69 57.69 C 25.28 60.61 20.22 64.26 18.33 71.33 C 16.44 78.40 20.07 86.03 25.25 90.75 C 30.42 95.47 35.13 99.81 42.00 101.00&#xA;C 25.65 110.39 27.18 132.46 40.75 143.25 C 54.33 154.04 75.40 155.70 86.00 141.00&#xA;C 78.49 145.28 67.05 145.34 59.07 143.93 C 51.09 142.51 43.44 138.53 38.77 132.23 C 34.10 125.93 33.71 112.63 42.25 109.25 C 50.80 105.88 57.50 99.70 46.68 96.32 C 35.86 92.94 35.47 90.82 27.75 84.25 C 20.04 77.67 24.79 68.09 32.78 64.78 C 40.77 61.46 49.76 63.87 55.75 70.25 C 61.74 76.63 65.51 81.36 68.70 89.30 C 71.89 97.25 75.90 101.49 78.69 110.31 C 81.49 119.12 85.95 122.31 88.22 132.78 C 90.49 143.24 97.62 143.54 100.23 133.23 C 102.83 122.92 106.54 118.98 109.23 110.23 C 111.92 101.48 116.00 96.81 119.08 89.08 C 122.15 81.34 125.97 75.49 131.75 69.75 C 137.54 64.02 148.41 60.64 155.92 64.08 C 163.43 67.52 167.78 77.82 160.25 84.25 C 152.72 90.67 152.14 92.09 141.08 96.08 C 130.01 100.07 138.14 104.98 146.75 108.25 C 155.37 111.52 153.94 125.07 149.92 130.92 C 145.90 136.77 138.03 142.46 130.22 143.22 C 122.41 143.98 110.39 145.51 103.00 141.00&#xA;C 113.39 155.19 135.65 153.37 148.75 142.75 C 161.85 132.14 162.48 110.08 147.00 101.00 Z" />
    </g>
    <g fill="#D9F8FD"
       fill-opacity="1.00"
       stroke="None">
        <path d="&#xA;M 135.00 179.00 &#xA;C 147.99 177.09 156.07 163.04 167.00 158.00&#xA;C 164.79 153.37 171.61 149.64 174.70 143.70 C 177.78 137.75 182.50 131.44 182.00 124.00&#xA;C 174.40 132.85 172.70 147.63 163.25 156.25 C 153.79 164.87 145.73 173.35 135.00 179.00 Z" />
    </g>
    <g fill="#C2F2FA"
       fill-opacity="1.00"
       stroke="None">
        <path d="&#xA;M 120.00 185.00 &#xA;C 124.74 184.82 128.22 182.07 132.00 180.00&#xA;C 128.10 181.47 123.11 182.33 120.00 185.00 Z" />
    </g>
</svg>