<svg xmlns="http://www.w3.org/2000/svg"
     viewBox="0 0 562 457"
     width="562"
     height="457">
    <g fill="None"
       fill-opacity="0.0"
       stroke="#FEFEFE"
       stroke-opacity="1.00"
       stroke-width="0.3">
        <path d="&#xA;M 0.00 457.00 &#xA;L 562.00 457.00&#xA;L 562.00 0.00&#xA;L 0.00 0.00&#xA;L 0.00 457.00&#xA;M 453.00 120.00 &#xA;C 439.00 120.00 425.00 120.00 411.00 120.00&#xA;C 408.75 111.00 405.21 100.97 399.70 93.30 C 394.18 85.64 389.35 78.55 381.75 72.25 C 374.15 65.94 367.90 61.86 358.31 57.69 C 348.71 53.53 338.27 50.96 326.78 50.22 C 315.29 49.48 300.22 50.20 288.00 50.00 C 275.78 49.80 262.59 50.10 250.00 50.00 C 237.41 49.90 223.77 50.07 211.00 50.00 C 198.23 49.93 185.92 50.08 173.00 50.00 C 160.08 49.92 147.11 50.13 134.00 50.00 C 120.89 49.87 108.37 50.28 95.00 50.00 C 81.63 49.72 71.01 50.64 57.00 50.00 C 42.99 49.36 48.63 68.23 48.00 80.00 C 47.37 91.77 48.28 105.62 48.00 118.00 C 47.72 130.38 48.14 144.34 48.00 157.00 C 47.86 169.66 48.10 183.30 48.00 196.00 C 47.90 208.70 48.12 221.35 48.00 234.00 C 47.88 246.65 48.21 260.51 48.00 273.00 C 47.79 285.49 48.46 298.94 48.00 311.00 C 47.54 323.06 48.96 335.75 51.78 346.22 C 54.60 356.69 58.12 364.67 63.77 373.23 C 69.42 381.79 74.33 386.36 82.23 392.77 C 90.13 399.18 97.05 403.37 107.02 406.98 C 117.00 410.58 127.12 413.17 139.00 413.00 C 150.88 412.83 165.54 413.08 178.00 413.00 C 190.46 412.92 204.32 413.04 217.00 413.00 C 229.68 412.96 242.20 413.02 255.00 413.00 C 267.80 412.98 281.10 413.01 294.00 413.00 C 306.90 412.99 320.08 413.01 333.00 413.00&#xA;C 333.00 426.67 333.00 440.33 333.00 454.00&#xA;C 312.31 454.02 290.58 453.98 270.00 454.00 C 249.42 454.02 227.20 453.95 207.00 454.00 C 186.80 454.05 163.29 453.90 144.00 454.00 C 124.71 454.10 106.65 450.82 90.32 444.68 C 74.00 438.54 64.40 431.28 51.75 420.25 C 39.10 409.22 31.23 400.49 23.69 385.31 C 16.16 370.12 9.34 356.44 8.22 337.78 C 7.10 319.11 8.31 294.96 8.00 275.00 C 7.69 255.04 8.02 232.57 8.00 212.00 C 7.98 191.43 7.75 169.88 8.00 149.00 C 8.25 128.12 7.30 107.12 8.00 86.00 C 8.70 64.88 6.40 44.45 8.00 23.00 C 9.60 1.55 39.90 11.43 58.00 10.00 C 76.10 8.57 101.41 10.70 121.00 10.00 C 140.59 9.30 163.86 10.43 184.00 10.00 C 204.14 9.57 226.88 10.46 247.00 10.00 C 267.12 9.54 290.49 10.78 310.00 10.00 C 329.51 9.22 349.57 11.00 366.07 16.93 C 382.57 22.85 393.28 29.27 406.25 39.75 C 419.22 50.24 426.93 59.93 435.31 73.70 C 443.68 87.46 450.64 103.88 453.00 120.00&#xA;M 375.00 120.00 &#xA;C 289.67 120.00 204.33 120.00 119.00 120.00&#xA;C 118.09 148.47 120.22 178.70 119.00 207.00 C 117.78 235.30 121.31 267.45 119.00 295.00 C 116.69 322.55 127.50 345.73 157.00 345.00 C 186.50 344.27 215.58 345.38 245.00 345.00 C 274.42 344.62 303.60 345.28 333.00 345.00&#xA;C 333.00 358.33 333.00 371.67 333.00 385.00&#xA;C 312.34 384.71 290.55 385.39 270.00 385.00 C 249.45 384.61 226.04 385.73 206.00 385.00 C 185.96 384.27 160.67 386.56 142.00 385.00 C 123.33 383.44 111.91 376.24 99.25 363.75 C 86.58 351.27 79.85 338.69 79.00 320.00 C 78.15 301.31 79.31 275.78 79.00 256.00 C 78.69 236.22 78.99 211.83 79.00 192.00 C 79.01 172.17 78.66 146.88 79.00 128.00 C 79.34 109.12 72.10 80.17 95.00 80.00 C 117.90 79.83 137.20 80.09 159.00 80.00 C 180.80 79.91 201.99 80.05 223.00 80.00 C 244.01 79.95 267.00 80.06 287.00 80.00 C 307.00 79.94 328.21 78.57 344.69 86.31 C 361.18 94.04 368.65 104.47 375.00 120.00&#xA;M 230.00 150.00 &#xA;C 230.00 162.33 230.00 174.67 230.00 187.00&#xA;C 215.67 187.00 201.33 187.00 187.00 187.00&#xA;C 187.00 216.67 187.00 246.33 187.00 276.00&#xA;C 222.67 276.00 258.33 276.00 294.00 276.00&#xA;C 294.00 270.67 294.00 265.33 294.00 260.00&#xA;C 307.00 260.00 320.00 260.00 333.00 260.00&#xA;C 329.51 274.76 338.01 293.15 332.22 307.22 C 326.44 321.29 304.60 313.60 291.00 315.00 C 277.40 316.40 257.65 314.38 243.00 315.00 C 228.35 315.62 208.65 314.72 194.00 315.00 C 179.35 315.28 166.34 316.44 156.25 304.75 C 146.16 293.07 149.54 278.57 149.00 263.00 C 148.46 247.43 149.68 231.60 149.00 215.00 C 148.32 198.40 150.25 183.84 149.00 166.00 C 147.75 148.16 165.80 148.77 181.00 150.00 C 196.20 151.23 214.52 149.08 230.00 150.00&#xA;M 547.00 229.00 &#xA;C 534.88 232.83 520.14 228.49 507.00 230.00 C 493.87 231.51 479.21 228.36 466.00 230.00&#xA;C 461.36 231.15 457.75 233.27 456.00 238.00&#xA;C 452.41 254.19 457.83 272.42 456.00 289.00 C 454.17 305.58 457.28 323.32 456.00 340.00 C 454.72 356.69 457.59 374.42 456.00 391.00 C 454.41 407.58 459.37 426.56 455.00 442.00&#xA;C 453.30 448.02 449.92 451.40 444.00 453.00&#xA;C 433.94 455.73 419.95 454.15 409.00 454.00 C 398.05 453.85 383.89 456.13 374.00 453.00&#xA;C 354.65 446.88 365.07 419.78 363.00 403.00 C 360.93 386.22 364.59 359.62 363.00 342.00 C 361.41 324.38 365.19 297.64 363.00 281.00 C 360.81 264.36 371.71 234.08 352.00 230.00&#xA;C 338.75 228.79 324.14 231.33 311.00 230.00 C 297.86 228.67 283.02 232.80 271.00 229.00&#xA;C 253.95 223.61 261.48 200.65 260.00 187.00 C 258.52 173.35 257.71 150.09 276.00 150.00 C 294.29 149.91 311.01 150.07 329.00 150.00 C 346.99 149.93 364.11 150.10 382.00 150.00 C 399.89 149.90 417.06 150.19 435.00 150.00 C 452.94 149.81 469.83 150.40 488.00 150.00 C 506.17 149.60 522.26 150.88 541.00 150.00 C 559.74 149.12 559.99 171.67 558.00 186.00 C 556.01 200.33 564.81 223.37 547.00 229.00 Z" />
    </g>
    <g fill="None"
       fill-opacity="0.0"
       stroke="#FFB81F"
       stroke-opacity="1.00"
       stroke-width="0.3">
        <path d="&#xA;M 453.00 120.00 &#xA;C 450.64 103.88 443.68 87.46 435.31 73.70 C 426.93 59.93 419.22 50.24 406.25 39.75 C 393.28 29.27 382.57 22.85 366.07 16.93 C 349.57 11.00 329.51 9.22 310.00 10.00 C 290.49 10.78 267.12 9.54 247.00 10.00 C 226.88 10.46 204.14 9.57 184.00 10.00 C 163.86 10.43 140.59 9.30 121.00 10.00 C 101.41 10.70 76.10 8.57 58.00 10.00 C 39.90 11.43 9.60 1.55 8.00 23.00 C 6.40 44.45 8.70 64.88 8.00 86.00 C 7.30 107.12 8.25 128.12 8.00 149.00 C 7.75 169.88 7.98 191.43 8.00 212.00 C 8.02 232.57 7.69 255.04 8.00 275.00 C 8.31 294.96 7.10 319.11 8.22 337.78 C 9.34 356.44 16.16 370.12 23.69 385.31 C 31.23 400.49 39.10 409.22 51.75 420.25 C 64.40 431.28 74.00 438.54 90.32 444.68 C 106.65 450.82 124.71 454.10 144.00 454.00 C 163.29 453.90 186.80 454.05 207.00 454.00 C 227.20 453.95 249.42 454.02 270.00 454.00 C 290.58 453.98 312.31 454.02 333.00 454.00&#xA;C 333.00 440.33 333.00 426.67 333.00 413.00&#xA;C 320.08 413.01 306.90 412.99 294.00 413.00 C 281.10 413.01 267.80 412.98 255.00 413.00 C 242.20 413.02 229.68 412.96 217.00 413.00 C 204.32 413.04 190.46 412.92 178.00 413.00 C 165.54 413.08 150.88 412.83 139.00 413.00 C 127.12 413.17 117.00 410.58 107.02 406.98 C 97.05 403.37 90.13 399.18 82.23 392.77 C 74.33 386.36 69.42 381.79 63.77 373.23 C 58.12 364.67 54.60 356.69 51.78 346.22 C 48.96 335.75 47.54 323.06 48.00 311.00 C 48.46 298.94 47.79 285.49 48.00 273.00 C 48.21 260.51 47.88 246.65 48.00 234.00 C 48.12 221.35 47.90 208.70 48.00 196.00 C 48.10 183.30 47.86 169.66 48.00 157.00 C 48.14 144.34 47.72 130.38 48.00 118.00 C 48.28 105.62 47.37 91.77 48.00 80.00 C 48.63 68.23 42.99 49.36 57.00 50.00 C 71.01 50.64 81.63 49.72 95.00 50.00 C 108.37 50.28 120.89 49.87 134.00 50.00 C 147.11 50.13 160.08 49.92 173.00 50.00 C 185.92 50.08 198.23 49.93 211.00 50.00 C 223.77 50.07 237.41 49.90 250.00 50.00 C 262.59 50.10 275.78 49.80 288.00 50.00 C 300.22 50.20 315.29 49.48 326.78 50.22 C 338.27 50.96 348.71 53.53 358.31 57.69 C 367.90 61.86 374.15 65.94 381.75 72.25 C 389.35 78.55 394.18 85.64 399.70 93.30 C 405.21 100.97 408.75 111.00 411.00 120.00&#xA;C 425.00 120.00 439.00 120.00 453.00 120.00 Z" />
    </g>
    <g fill="None"
       fill-opacity="0.0"
       stroke="#FFCA57"
       stroke-opacity="1.00"
       stroke-width="0.3">
        <path d="&#xA;M 375.00 120.00 &#xA;C 368.65 104.47 361.18 94.04 344.69 86.31 C 328.21 78.57 307.00 79.94 287.00 80.00 C 267.00 80.06 244.01 79.95 223.00 80.00 C 201.99 80.05 180.80 79.91 159.00 80.00 C 137.20 80.09 117.90 79.83 95.00 80.00 C 72.10 80.17 79.34 109.12 79.00 128.00 C 78.66 146.88 79.01 172.17 79.00 192.00 C 78.99 211.83 78.69 236.22 79.00 256.00 C 79.31 275.78 78.15 301.31 79.00 320.00 C 79.85 338.69 86.58 351.27 99.25 363.75 C 111.91 376.24 123.33 383.44 142.00 385.00 C 160.67 386.56 185.96 384.27 206.00 385.00 C 226.04 385.73 249.45 384.61 270.00 385.00 C 290.55 385.39 312.34 384.71 333.00 385.00&#xA;C 333.00 371.67 333.00 358.33 333.00 345.00&#xA;C 303.60 345.28 274.42 344.62 245.00 345.00 C 215.58 345.38 186.50 344.27 157.00 345.00 C 127.50 345.73 116.69 322.55 119.00 295.00 C 121.31 267.45 117.78 235.30 119.00 207.00 C 120.22 178.70 118.09 148.47 119.00 120.00&#xA;C 204.33 120.00 289.67 120.00 375.00 120.00 Z" />
    </g>
    <g fill="None"
       fill-opacity="0.0"
       stroke="#FFDB8E"
       stroke-opacity="1.00"
       stroke-width="0.3">
        <path d="&#xA;M 230.00 150.00 &#xA;C 214.52 149.08 196.20 151.23 181.00 150.00 C 165.80 148.77 147.75 148.16 149.00 166.00 C 150.25 183.84 148.32 198.40 149.00 215.00 C 149.68 231.60 148.46 247.43 149.00 263.00 C 149.54 278.57 146.16 293.07 156.25 304.75 C 166.34 316.44 179.35 315.28 194.00 315.00 C 208.65 314.72 228.35 315.62 243.00 315.00 C 257.65 314.38 277.40 316.40 291.00 315.00 C 304.60 313.60 326.44 321.29 332.22 307.22 C 338.01 293.15 329.51 274.76 333.00 260.00&#xA;C 320.00 260.00 307.00 260.00 294.00 260.00&#xA;C 294.00 265.33 294.00 270.67 294.00 276.00&#xA;C 258.33 276.00 222.67 276.00 187.00 276.00&#xA;C 187.00 246.33 187.00 216.67 187.00 187.00&#xA;C 201.33 187.00 215.67 187.00 230.00 187.00&#xA;C 230.00 174.67 230.00 162.33 230.00 150.00 Z" />
    </g>
    <g fill="None"
       fill-opacity="0.0"
       stroke="#0176CF"
       stroke-opacity="1.00"
       stroke-width="0.3">
        <path d="&#xA;M 271.00 229.00 &#xA;C 297.12 233.68 326.51 224.72 352.00 230.00&#xA;C 371.71 234.08 360.81 264.36 363.00 281.00 C 365.19 297.64 361.41 324.38 363.00 342.00 C 364.59 359.62 360.93 386.22 363.00 403.00 C 365.07 419.78 354.65 446.88 374.00 453.00&#xA;C 384.97 454.96 397.83 452.86 409.00 453.00 C 420.17 453.14 432.94 454.58 444.00 453.00&#xA;C 449.92 451.40 453.30 448.02 455.00 442.00&#xA;C 457.52 425.45 453.57 407.70 455.00 391.00 C 456.43 374.30 453.70 356.64 455.00 340.00 C 456.30 323.36 452.98 305.34 455.00 289.00 C 457.02 272.66 450.52 252.85 456.00 238.00&#xA;C 457.75 233.27 461.36 231.15 466.00 230.00&#xA;C 491.25 223.75 520.98 233.66 547.00 229.00&#xA;C 564.81 223.37 556.01 200.33 558.00 186.00 C 559.99 171.67 559.74 149.12 541.00 150.00 C 522.26 150.88 506.17 149.60 488.00 150.00 C 469.83 150.40 452.94 149.81 435.00 150.00 C 417.06 150.19 399.89 149.90 382.00 150.00 C 364.11 150.10 346.99 149.93 329.00 150.00 C 311.01 150.07 294.29 149.91 276.00 150.00 C 257.71 150.09 258.52 173.35 260.00 187.00 C 261.48 200.65 253.95 223.61 271.00 229.00 Z" />
    </g>
    <g fill="None"
       fill-opacity="0.0"
       stroke="#80BBE7"
       stroke-opacity="1.00"
       stroke-width="0.3">
        <path d="&#xA;M 352.00 230.00 &#xA;C 326.51 224.72 297.12 233.68 271.00 229.00&#xA;C 283.02 232.80 297.86 228.67 311.00 230.00 C 324.14 231.33 338.75 228.79 352.00 230.00 Z" />
    </g>
    <g fill="None"
       fill-opacity="0.0"
       stroke="#80BBE7"
       stroke-opacity="1.00"
       stroke-width="0.3">
        <path d="&#xA;M 466.00 230.00 &#xA;C 479.21 228.36 493.87 231.51 507.00 230.00 C 520.14 228.49 534.88 232.83 547.00 229.00&#xA;C 520.98 233.66 491.25 223.75 466.00 230.00 Z" />
    </g>
    <g fill="None"
       fill-opacity="0.0"
       stroke="#BEDCF2"
       stroke-opacity="1.00"
       stroke-width="0.3">
        <path d="&#xA;M 455.00 442.00 &#xA;C 459.37 426.56 454.41 407.58 456.00 391.00 C 457.59 374.42 454.72 356.69 456.00 340.00 C 457.28 323.32 454.17 305.58 456.00 289.00 C 457.83 272.42 452.41 254.19 456.00 238.00&#xA;C 450.52 252.85 457.02 272.66 455.00 289.00 C 452.98 305.34 456.30 323.36 455.00 340.00 C 453.70 356.64 456.43 374.30 455.00 391.00 C 453.57 407.70 457.52 425.45 455.00 442.00 Z" />
    </g>
    <g fill="None"
       fill-opacity="0.0"
       stroke="#82BCE7"
       stroke-opacity="1.00"
       stroke-width="0.3">
        <path d="&#xA;M 444.00 453.00 &#xA;C 432.94 454.58 420.17 453.14 409.00 453.00 C 397.83 452.86 384.97 454.96 374.00 453.00&#xA;C 383.89 456.13 398.05 453.85 409.00 454.00 C 419.95 454.15 433.94 455.73 444.00 453.00 Z" />
    </g>
    <g fill="#FEFEFE"
       fill-opacity="1.00"
       stroke="None">
        <path d="&#xA;M 0.00 457.00 &#xA;L 562.00 457.00&#xA;L 562.00 0.00&#xA;L 0.00 0.00&#xA;L 0.00 457.00&#xA;M 453.00 120.00 &#xA;C 439.00 120.00 425.00 120.00 411.00 120.00&#xA;C 408.75 111.00 405.21 100.97 399.70 93.30 C 394.18 85.64 389.35 78.55 381.75 72.25 C 374.15 65.94 367.90 61.86 358.31 57.69 C 348.71 53.53 338.27 50.96 326.78 50.22 C 315.29 49.48 300.22 50.20 288.00 50.00 C 275.78 49.80 262.59 50.10 250.00 50.00 C 237.41 49.90 223.77 50.07 211.00 50.00 C 198.23 49.93 185.92 50.08 173.00 50.00 C 160.08 49.92 147.11 50.13 134.00 50.00 C 120.89 49.87 108.37 50.28 95.00 50.00 C 81.63 49.72 71.01 50.64 57.00 50.00 C 42.99 49.36 48.63 68.23 48.00 80.00 C 47.37 91.77 48.28 105.62 48.00 118.00 C 47.72 130.38 48.14 144.34 48.00 157.00 C 47.86 169.66 48.10 183.30 48.00 196.00 C 47.90 208.70 48.12 221.35 48.00 234.00 C 47.88 246.65 48.21 260.51 48.00 273.00 C 47.79 285.49 48.46 298.94 48.00 311.00 C 47.54 323.06 48.96 335.75 51.78 346.22 C 54.60 356.69 58.12 364.67 63.77 373.23 C 69.42 381.79 74.33 386.36 82.23 392.77 C 90.13 399.18 97.05 403.37 107.02 406.98 C 117.00 410.58 127.12 413.17 139.00 413.00 C 150.88 412.83 165.54 413.08 178.00 413.00 C 190.46 412.92 204.32 413.04 217.00 413.00 C 229.68 412.96 242.20 413.02 255.00 413.00 C 267.80 412.98 281.10 413.01 294.00 413.00 C 306.90 412.99 320.08 413.01 333.00 413.00&#xA;C 333.00 426.67 333.00 440.33 333.00 454.00&#xA;C 312.31 454.02 290.58 453.98 270.00 454.00 C 249.42 454.02 227.20 453.95 207.00 454.00 C 186.80 454.05 163.29 453.90 144.00 454.00 C 124.71 454.10 106.65 450.82 90.32 444.68 C 74.00 438.54 64.40 431.28 51.75 420.25 C 39.10 409.22 31.23 400.49 23.69 385.31 C 16.16 370.12 9.34 356.44 8.22 337.78 C 7.10 319.11 8.31 294.96 8.00 275.00 C 7.69 255.04 8.02 232.57 8.00 212.00 C 7.98 191.43 7.75 169.88 8.00 149.00 C 8.25 128.12 7.30 107.12 8.00 86.00 C 8.70 64.88 6.40 44.45 8.00 23.00 C 9.60 1.55 39.90 11.43 58.00 10.00 C 76.10 8.57 101.41 10.70 121.00 10.00 C 140.59 9.30 163.86 10.43 184.00 10.00 C 204.14 9.57 226.88 10.46 247.00 10.00 C 267.12 9.54 290.49 10.78 310.00 10.00 C 329.51 9.22 349.57 11.00 366.07 16.93 C 382.57 22.85 393.28 29.27 406.25 39.75 C 419.22 50.24 426.93 59.93 435.31 73.70 C 443.68 87.46 450.64 103.88 453.00 120.00&#xA;M 375.00 120.00 &#xA;C 289.67 120.00 204.33 120.00 119.00 120.00&#xA;C 118.09 148.47 120.22 178.70 119.00 207.00 C 117.78 235.30 121.31 267.45 119.00 295.00 C 116.69 322.55 127.50 345.73 157.00 345.00 C 186.50 344.27 215.58 345.38 245.00 345.00 C 274.42 344.62 303.60 345.28 333.00 345.00&#xA;C 333.00 358.33 333.00 371.67 333.00 385.00&#xA;C 312.34 384.71 290.55 385.39 270.00 385.00 C 249.45 384.61 226.04 385.73 206.00 385.00 C 185.96 384.27 160.67 386.56 142.00 385.00 C 123.33 383.44 111.91 376.24 99.25 363.75 C 86.58 351.27 79.85 338.69 79.00 320.00 C 78.15 301.31 79.31 275.78 79.00 256.00 C 78.69 236.22 78.99 211.83 79.00 192.00 C 79.01 172.17 78.66 146.88 79.00 128.00 C 79.34 109.12 72.10 80.17 95.00 80.00 C 117.90 79.83 137.20 80.09 159.00 80.00 C 180.80 79.91 201.99 80.05 223.00 80.00 C 244.01 79.95 267.00 80.06 287.00 80.00 C 307.00 79.94 328.21 78.57 344.69 86.31 C 361.18 94.04 368.65 104.47 375.00 120.00&#xA;M 230.00 150.00 &#xA;C 230.00 162.33 230.00 174.67 230.00 187.00&#xA;C 215.67 187.00 201.33 187.00 187.00 187.00&#xA;C 187.00 216.67 187.00 246.33 187.00 276.00&#xA;C 222.67 276.00 258.33 276.00 294.00 276.00&#xA;C 294.00 270.67 294.00 265.33 294.00 260.00&#xA;C 307.00 260.00 320.00 260.00 333.00 260.00&#xA;C 329.51 274.76 338.01 293.15 332.22 307.22 C 326.44 321.29 304.60 313.60 291.00 315.00 C 277.40 316.40 257.65 314.38 243.00 315.00 C 228.35 315.62 208.65 314.72 194.00 315.00 C 179.35 315.28 166.34 316.44 156.25 304.75 C 146.16 293.07 149.54 278.57 149.00 263.00 C 148.46 247.43 149.68 231.60 149.00 215.00 C 148.32 198.40 150.25 183.84 149.00 166.00 C 147.75 148.16 165.80 148.77 181.00 150.00 C 196.20 151.23 214.52 149.08 230.00 150.00&#xA;M 547.00 229.00 &#xA;C 534.88 232.83 520.14 228.49 507.00 230.00 C 493.87 231.51 479.21 228.36 466.00 230.00&#xA;C 461.36 231.15 457.75 233.27 456.00 238.00&#xA;C 452.41 254.19 457.83 272.42 456.00 289.00 C 454.17 305.58 457.28 323.32 456.00 340.00 C 454.72 356.69 457.59 374.42 456.00 391.00 C 454.41 407.58 459.37 426.56 455.00 442.00&#xA;C 453.30 448.02 449.92 451.40 444.00 453.00&#xA;C 433.94 455.73 419.95 454.15 409.00 454.00 C 398.05 453.85 383.89 456.13 374.00 453.00&#xA;C 354.65 446.88 365.07 419.78 363.00 403.00 C 360.93 386.22 364.59 359.62 363.00 342.00 C 361.41 324.38 365.19 297.64 363.00 281.00 C 360.81 264.36 371.71 234.08 352.00 230.00&#xA;C 338.75 228.79 324.14 231.33 311.00 230.00 C 297.86 228.67 283.02 232.80 271.00 229.00&#xA;C 253.95 223.61 261.48 200.65 260.00 187.00 C 258.52 173.35 257.71 150.09 276.00 150.00 C 294.29 149.91 311.01 150.07 329.00 150.00 C 346.99 149.93 364.11 150.10 382.00 150.00 C 399.89 149.90 417.06 150.19 435.00 150.00 C 452.94 149.81 469.83 150.40 488.00 150.00 C 506.17 149.60 522.26 150.88 541.00 150.00 C 559.74 149.12 559.99 171.67 558.00 186.00 C 556.01 200.33 564.81 223.37 547.00 229.00 Z" />
    </g>
    <g fill="#FFB81F"
       fill-opacity="1.00"
       stroke="None">
        <path d="&#xA;M 453.00 120.00 &#xA;C 450.64 103.88 443.68 87.46 435.31 73.70 C 426.93 59.93 419.22 50.24 406.25 39.75 C 393.28 29.27 382.57 22.85 366.07 16.93 C 349.57 11.00 329.51 9.22 310.00 10.00 C 290.49 10.78 267.12 9.54 247.00 10.00 C 226.88 10.46 204.14 9.57 184.00 10.00 C 163.86 10.43 140.59 9.30 121.00 10.00 C 101.41 10.70 76.10 8.57 58.00 10.00 C 39.90 11.43 9.60 1.55 8.00 23.00 C 6.40 44.45 8.70 64.88 8.00 86.00 C 7.30 107.12 8.25 128.12 8.00 149.00 C 7.75 169.88 7.98 191.43 8.00 212.00 C 8.02 232.57 7.69 255.04 8.00 275.00 C 8.31 294.96 7.10 319.11 8.22 337.78 C 9.34 356.44 16.16 370.12 23.69 385.31 C 31.23 400.49 39.10 409.22 51.75 420.25 C 64.40 431.28 74.00 438.54 90.32 444.68 C 106.65 450.82 124.71 454.10 144.00 454.00 C 163.29 453.90 186.80 454.05 207.00 454.00 C 227.20 453.95 249.42 454.02 270.00 454.00 C 290.58 453.98 312.31 454.02 333.00 454.00&#xA;C 333.00 440.33 333.00 426.67 333.00 413.00&#xA;C 320.08 413.01 306.90 412.99 294.00 413.00 C 281.10 413.01 267.80 412.98 255.00 413.00 C 242.20 413.02 229.68 412.96 217.00 413.00 C 204.32 413.04 190.46 412.92 178.00 413.00 C 165.54 413.08 150.88 412.83 139.00 413.00 C 127.12 413.17 117.00 410.58 107.02 406.98 C 97.05 403.37 90.13 399.18 82.23 392.77 C 74.33 386.36 69.42 381.79 63.77 373.23 C 58.12 364.67 54.60 356.69 51.78 346.22 C 48.96 335.75 47.54 323.06 48.00 311.00 C 48.46 298.94 47.79 285.49 48.00 273.00 C 48.21 260.51 47.88 246.65 48.00 234.00 C 48.12 221.35 47.90 208.70 48.00 196.00 C 48.10 183.30 47.86 169.66 48.00 157.00 C 48.14 144.34 47.72 130.38 48.00 118.00 C 48.28 105.62 47.37 91.77 48.00 80.00 C 48.63 68.23 42.99 49.36 57.00 50.00 C 71.01 50.64 81.63 49.72 95.00 50.00 C 108.37 50.28 120.89 49.87 134.00 50.00 C 147.11 50.13 160.08 49.92 173.00 50.00 C 185.92 50.08 198.23 49.93 211.00 50.00 C 223.77 50.07 237.41 49.90 250.00 50.00 C 262.59 50.10 275.78 49.80 288.00 50.00 C 300.22 50.20 315.29 49.48 326.78 50.22 C 338.27 50.96 348.71 53.53 358.31 57.69 C 367.90 61.86 374.15 65.94 381.75 72.25 C 389.35 78.55 394.18 85.64 399.70 93.30 C 405.21 100.97 408.75 111.00 411.00 120.00&#xA;C 425.00 120.00 439.00 120.00 453.00 120.00 Z" />
    </g>
    <g fill="#FFCA57"
       fill-opacity="1.00"
       stroke="None">
        <path d="&#xA;M 375.00 120.00 &#xA;C 368.65 104.47 361.18 94.04 344.69 86.31 C 328.21 78.57 307.00 79.94 287.00 80.00 C 267.00 80.06 244.01 79.95 223.00 80.00 C 201.99 80.05 180.80 79.91 159.00 80.00 C 137.20 80.09 117.90 79.83 95.00 80.00 C 72.10 80.17 79.34 109.12 79.00 128.00 C 78.66 146.88 79.01 172.17 79.00 192.00 C 78.99 211.83 78.69 236.22 79.00 256.00 C 79.31 275.78 78.15 301.31 79.00 320.00 C 79.85 338.69 86.58 351.27 99.25 363.75 C 111.91 376.24 123.33 383.44 142.00 385.00 C 160.67 386.56 185.96 384.27 206.00 385.00 C 226.04 385.73 249.45 384.61 270.00 385.00 C 290.55 385.39 312.34 384.71 333.00 385.00&#xA;C 333.00 371.67 333.00 358.33 333.00 345.00&#xA;C 303.60 345.28 274.42 344.62 245.00 345.00 C 215.58 345.38 186.50 344.27 157.00 345.00 C 127.50 345.73 116.69 322.55 119.00 295.00 C 121.31 267.45 117.78 235.30 119.00 207.00 C 120.22 178.70 118.09 148.47 119.00 120.00&#xA;C 204.33 120.00 289.67 120.00 375.00 120.00 Z" />
    </g>
    <g fill="#FFDB8E"
       fill-opacity="1.00"
       stroke="None">
        <path d="&#xA;M 230.00 150.00 &#xA;C 214.52 149.08 196.20 151.23 181.00 150.00 C 165.80 148.77 147.75 148.16 149.00 166.00 C 150.25 183.84 148.32 198.40 149.00 215.00 C 149.68 231.60 148.46 247.43 149.00 263.00 C 149.54 278.57 146.16 293.07 156.25 304.75 C 166.34 316.44 179.35 315.28 194.00 315.00 C 208.65 314.72 228.35 315.62 243.00 315.00 C 257.65 314.38 277.40 316.40 291.00 315.00 C 304.60 313.60 326.44 321.29 332.22 307.22 C 338.01 293.15 329.51 274.76 333.00 260.00&#xA;C 320.00 260.00 307.00 260.00 294.00 260.00&#xA;C 294.00 265.33 294.00 270.67 294.00 276.00&#xA;C 258.33 276.00 222.67 276.00 187.00 276.00&#xA;C 187.00 246.33 187.00 216.67 187.00 187.00&#xA;C 201.33 187.00 215.67 187.00 230.00 187.00&#xA;C 230.00 174.67 230.00 162.33 230.00 150.00 Z" />
    </g>
    <g fill="#0176CF"
       fill-opacity="1.00"
       stroke="None">
        <path d="&#xA;M 271.00 229.00 &#xA;C 297.12 233.68 326.51 224.72 352.00 230.00&#xA;C 371.71 234.08 360.81 264.36 363.00 281.00 C 365.19 297.64 361.41 324.38 363.00 342.00 C 364.59 359.62 360.93 386.22 363.00 403.00 C 365.07 419.78 354.65 446.88 374.00 453.00&#xA;C 384.97 454.96 397.83 452.86 409.00 453.00 C 420.17 453.14 432.94 454.58 444.00 453.00&#xA;C 449.92 451.40 453.30 448.02 455.00 442.00&#xA;C 457.52 425.45 453.57 407.70 455.00 391.00 C 456.43 374.30 453.70 356.64 455.00 340.00 C 456.30 323.36 452.98 305.34 455.00 289.00 C 457.02 272.66 450.52 252.85 456.00 238.00&#xA;C 457.75 233.27 461.36 231.15 466.00 230.00&#xA;C 491.25 223.75 520.98 233.66 547.00 229.00&#xA;C 564.81 223.37 556.01 200.33 558.00 186.00 C 559.99 171.67 559.74 149.12 541.00 150.00 C 522.26 150.88 506.17 149.60 488.00 150.00 C 469.83 150.40 452.94 149.81 435.00 150.00 C 417.06 150.19 399.89 149.90 382.00 150.00 C 364.11 150.10 346.99 149.93 329.00 150.00 C 311.01 150.07 294.29 149.91 276.00 150.00 C 257.71 150.09 258.52 173.35 260.00 187.00 C 261.48 200.65 253.95 223.61 271.00 229.00 Z" />
    </g>
    <g fill="#80BBE7"
       fill-opacity="1.00"
       stroke="None">
        <path d="&#xA;M 352.00 230.00 &#xA;C 326.51 224.72 297.12 233.68 271.00 229.00&#xA;C 283.02 232.80 297.86 228.67 311.00 230.00 C 324.14 231.33 338.75 228.79 352.00 230.00 Z" />
    </g>
    <g fill="#80BBE7"
       fill-opacity="1.00"
       stroke="None">
        <path d="&#xA;M 466.00 230.00 &#xA;C 479.21 228.36 493.87 231.51 507.00 230.00 C 520.14 228.49 534.88 232.83 547.00 229.00&#xA;C 520.98 233.66 491.25 223.75 466.00 230.00 Z" />
    </g>
    <g fill="#BEDCF2"
       fill-opacity="1.00"
       stroke="None">
        <path d="&#xA;M 455.00 442.00 &#xA;C 459.37 426.56 454.41 407.58 456.00 391.00 C 457.59 374.42 454.72 356.69 456.00 340.00 C 457.28 323.32 454.17 305.58 456.00 289.00 C 457.83 272.42 452.41 254.19 456.00 238.00&#xA;C 450.52 252.85 457.02 272.66 455.00 289.00 C 452.98 305.34 456.30 323.36 455.00 340.00 C 453.70 356.64 456.43 374.30 455.00 391.00 C 453.57 407.70 457.52 425.45 455.00 442.00 Z" />
    </g>
    <g fill="#82BCE7"
       fill-opacity="1.00"
       stroke="None">
        <path d="&#xA;M 444.00 453.00 &#xA;C 432.94 454.58 420.17 453.14 409.00 453.00 C 397.83 452.86 384.97 454.96 374.00 453.00&#xA;C 383.89 456.13 398.05 453.85 409.00 454.00 C 419.95 454.15 433.94 455.73 444.00 453.00 Z" />
    </g>
</svg>