<svg xmlns="http://www.w3.org/2000/svg"
     viewBox="0 0 1338 1912"
     width="1338"
     height="1912">
    <g fill="None"
       fill-opacity="0.0"
       stroke="#000000"
       stroke-opacity="0.00"
       stroke-width="0.3">
        <path d="&#xA;M 0.00 1912.00 &#xA;L 1338.00 1912.00&#xA;L 1338.00 0.00&#xA;L 0.00 0.00&#xA;L 0.00 1912.00&#xA;M 80.00 617.00 &#xA;C 79.75 631.36 80.34 645.63 80.00 660.00 C 79.66 674.37 80.64 688.59 80.00 703.00 C 79.36 717.41 81.35 732.63 80.00 747.00 C 78.65 761.37 83.03 775.76 80.00 790.00 C 76.97 804.24 56.27 797.74 60.00 783.00 C 63.73 768.26 58.27 753.47 60.00 739.00 C 61.73 724.53 59.20 710.17 60.00 696.00 C 60.80 681.84 59.61 666.75 60.00 653.00 C 60.39 639.25 59.73 621.87 60.00 609.00 C 60.27 596.13 51.55 585.37 61.75 575.75 C 71.96 566.13 88.23 576.77 86.99 588.01 C 85.75 599.25 94.44 606.51 102.75 614.25 C 111.06 621.99 117.88 626.99 128.08 631.92 C 138.27 636.86 149.86 639.42 161.22 641.78 C 172.59 644.14 190.05 643.09 200.68 639.68 C 211.31 636.27 221.11 632.52 230.70 626.70 C 240.29 620.88 246.26 615.25 254.25 607.25 C 262.24 599.25 266.38 590.82 271.77 580.77 C 277.16 570.72 278.86 558.55 281.00 547.00 C 283.14 535.45 281.41 519.67 278.22 508.78 C 275.03 497.89 271.32 486.96 265.25 477.75 C 259.17 468.55 253.43 462.37 245.25 454.75 C 237.06 447.13 228.96 443.38 218.92 438.08 C 208.89 432.77 196.15 429.69 184.33 428.67 C 172.51 427.65 157.41 429.35 145.99 431.99 C 134.57 434.63 126.80 440.43 116.75 445.75 C 106.70 451.08 102.41 458.87 93.25 466.25 C 84.09 473.63 89.80 487.23 80.75 494.75 C 71.70 502.27 56.17 495.33 56.01 482.99 C 55.84 470.65 70.27 467.60 76.30 459.30 C 82.34 451.00 89.14 443.87 97.70 437.70 C 106.26 431.53 114.82 426.21 124.69 421.69 C 134.57 417.18 147.51 413.37 159.01 412.01 C 170.51 410.65 187.76 410.46 199.00 413.00 C 210.24 415.54 221.01 419.20 231.02 423.98 C 241.04 428.75 248.43 435.28 257.23 441.77 C 266.03 448.26 270.83 456.15 277.25 464.75 C 283.68 473.34 287.77 482.63 291.77 493.23 C 295.77 503.82 297.92 518.12 298.99 530.01 C 300.06 541.90 297.61 557.77 294.67 568.67 C 291.74 579.58 287.48 589.45 282.08 599.08 C 276.67 608.70 269.93 615.23 262.25 623.25 C 254.57 631.27 247.76 636.57 238.30 642.30 C 228.84 648.03 219.04 651.74 207.99 654.99 C 196.95 658.24 180.20 660.20 168.00 659.00 C 155.80 657.80 142.78 656.02 131.92 652.08 C 121.07 648.14 112.83 643.47 103.75 637.25 C 94.68 631.03 88.05 624.53 80.00 617.00&#xA;M 167.00 433.00 &#xA;C 174.01 434.08 181.13 442.95 190.00 441.00 C 198.87 439.05 206.44 447.24 214.22 448.78 C 222.01 450.31 227.10 456.31 233.75 460.25 C 240.39 464.20 244.84 470.51 249.30 476.70 C 253.77 482.88 258.44 488.07 261.31 495.70 C 264.17 503.32 267.56 511.72 268.78 520.22 C 270.00 528.72 270.32 540.51 269.00 549.00 C 267.68 557.49 265.25 566.26 261.69 573.70 C 258.14 581.13 255.55 587.30 250.25 593.25 C 244.95 599.19 240.87 604.89 234.30 609.30 C 227.74 613.71 223.46 618.91 215.77 621.77 C 208.08 624.63 199.89 628.78 190.98 628.98 C 182.06 629.17 175.70 632.72 167.92 636.92 C 160.15 641.13 149.74 631.59 149.01 623.99 C 148.27 616.40 153.82 606.31 163.01 607.01 C 172.20 607.71 178.78 614.48 188.02 612.02 C 197.27 609.57 203.25 607.99 211.08 604.08 C 218.90 600.16 223.34 596.50 229.25 590.25 C 235.16 584.00 238.87 580.24 242.92 572.92 C 246.96 565.60 250.21 557.90 251.33 549.33 C 252.45 540.75 252.42 528.47 251.02 519.98 C 249.63 511.48 246.13 504.16 242.23 496.77 C 238.33 489.38 234.12 485.96 228.25 479.75 C 222.38 473.54 217.45 470.28 209.92 466.08 C 202.40 461.87 195.81 460.69 186.98 458.02 C 178.14 455.36 171.97 463.58 163.00 464.00 C 154.03 464.42 148.11 455.27 149.00 447.00 C 149.89 438.73 158.49 431.68 167.00 433.00&#xA;M 181.00 469.00 &#xA;C 191.05 469.97 202.12 474.50 210.75 480.25 C 219.37 486.01 225.52 492.04 230.92 501.08 C 236.32 510.12 240.44 520.90 240.99 532.01 C 241.55 543.12 238.41 555.66 233.23 565.23 C 228.04 574.80 223.85 580.82 214.92 587.92 C 205.99 595.02 197.45 596.99 186.00 600.00 C 174.55 603.00 161.78 598.50 150.78 596.22 C 139.77 593.95 135.03 585.22 125.75 580.25 C 116.48 575.28 105.77 569.94 110.92 557.92 C 116.08 545.91 130.18 545.23 136.25 553.75 C 142.31 562.27 140.24 574.94 152.23 578.77 C 164.22 582.60 175.36 586.16 186.67 582.67 C 197.99 579.18 204.37 575.02 211.75 566.75 C 219.13 558.49 223.46 548.81 224.00 538.00 C 224.54 527.18 220.99 515.40 214.25 506.75 C 207.51 498.11 201.01 493.80 190.78 489.22 C 180.54 484.65 168.51 486.60 156.98 489.98 C 145.44 493.35 140.40 502.05 139.07 513.07 C 137.74 524.10 118.09 525.85 112.25 516.75 C 106.41 507.66 110.79 494.08 122.07 492.07 C 133.36 490.06 135.51 479.15 146.69 475.69 C 157.88 472.24 168.19 467.76 181.00 469.00&#xA;M 420.00 536.00 &#xA;C 432.07 540.45 421.95 562.22 409.78 555.22 C 397.60 548.23 408.01 531.57 420.00 536.00&#xA;M 627.00 628.00 &#xA;C 630.53 618.93 635.46 610.63 642.25 603.25 C 649.03 595.87 655.43 590.01 664.08 585.08 C 672.72 580.14 681.67 574.90 692.07 573.07 C 702.47 571.25 718.79 571.69 729.00 574.00 C 739.21 576.31 748.18 580.80 756.70 586.30 C 765.21 591.81 771.55 596.87 777.77 605.23 C 783.99 613.59 789.37 620.44 793.31 630.70 C 797.24 640.95 800.38 650.89 801.00 663.00 C 801.62 675.11 800.16 690.14 801.00 703.00 C 801.84 715.86 799.38 729.72 801.00 743.00 C 802.62 756.28 797.52 769.33 801.00 783.00 C 804.48 796.67 785.96 804.22 784.00 790.00 C 782.04 775.78 785.09 762.55 784.00 749.00 C 782.91 735.45 784.93 721.85 784.00 709.00 C 783.07 696.15 785.38 680.83 784.00 669.00 C 782.62 657.17 780.07 647.01 776.03 636.98 C 771.98 626.94 766.14 621.56 759.25 613.75 C 752.36 605.94 745.16 601.39 735.92 597.08 C 726.69 592.76 711.71 590.65 701.00 592.00 C 690.29 593.35 680.32 597.89 671.30 603.30 C 662.28 608.72 657.86 615.06 651.23 623.23 C 644.60 631.40 641.06 639.41 638.07 650.07 C 635.09 660.74 636.00 676.05 636.00 688.00 C 636.00 699.95 635.92 716.22 636.00 728.00 C 636.08 739.78 635.79 757.44 636.00 768.00 C 636.21 778.56 638.97 799.43 625.00 798.00 C 611.03 796.57 618.35 776.50 617.00 766.00 C 615.65 755.50 617.71 737.68 617.00 726.00 C 616.29 714.32 617.54 697.76 617.00 686.00 C 616.46 674.24 617.78 659.26 614.02 648.98 C 610.27 638.69 607.93 629.85 601.25 621.75 C 594.56 613.66 588.75 608.69 580.25 602.75 C 571.76 596.80 560.81 593.26 549.99 592.01 C 539.18 590.75 525.28 593.55 515.92 597.92 C 506.55 602.29 499.49 606.27 492.25 614.25 C 485.01 622.23 480.72 628.00 476.23 638.23 C 471.74 648.45 469.99 659.65 470.00 672.00 C 470.01 684.35 470.53 699.04 470.00 712.00 C 469.47 724.96 471.37 739.81 470.00 753.00 C 468.63 766.19 473.84 778.89 468.69 791.69 C 463.55 804.50 447.93 794.92 451.00 782.00 C 454.07 769.08 449.67 754.96 451.00 742.00 C 452.33 729.04 450.53 714.75 451.00 702.00 C 451.47 689.25 450.73 674.63 451.78 662.78 C 452.82 650.93 455.22 640.71 459.77 630.77 C 464.32 620.83 467.50 612.65 474.77 604.77 C 482.04 596.89 487.40 591.77 496.08 586.08 C 504.76 580.40 513.55 576.45 524.02 574.02 C 534.50 571.60 549.57 572.00 560.07 573.93 C 570.57 575.86 580.09 579.63 588.75 585.25 C 597.40 590.88 602.78 596.57 610.25 603.75 C 617.72 610.93 621.36 620.07 627.00 628.00&#xA;M 417.00 573.00 &#xA;C 428.96 575.35 422.95 595.41 424.00 606.00 C 425.05 616.59 423.45 634.91 424.00 647.00 C 424.55 659.09 423.59 675.47 424.00 688.00 C 424.41 700.53 423.45 716.79 424.00 729.00 C 424.55 741.21 422.94 759.08 424.00 770.00 C 425.06 780.92 425.17 801.33 411.33 797.67 C 397.49 794.01 405.61 776.08 404.00 765.00 C 402.39 753.92 404.75 736.32 404.00 724.00 C 403.25 711.68 404.39 695.66 404.00 683.00 C 403.61 670.34 404.30 654.33 404.00 642.00 C 403.70 629.67 404.40 612.11 404.00 601.00 C 403.60 589.89 401.47 569.95 417.00 573.00&#xA;M 942.00 573.00 &#xA;C 952.75 574.53 965.19 579.07 975.23 583.77 C 985.27 588.47 994.79 592.25 1003.25 599.75 C 1011.70 607.26 1017.32 614.00 1023.25 623.75 C 1029.18 633.51 1032.36 642.76 1036.78 654.22 C 1041.19 665.69 1041.64 679.34 1042.00 693.00 C 1042.36 706.66 1040.57 722.64 1042.00 737.00 C 1043.43 751.36 1038.54 766.14 1042.00 781.00 C 1045.45 795.86 1024.71 803.30 1023.00 788.00 C 1021.30 772.69 1023.64 758.59 1023.00 744.00 C 1022.36 729.41 1023.01 713.82 1023.00 700.00 C 1022.99 686.18 1022.19 672.12 1018.67 660.33 C 1015.16 648.53 1011.49 639.79 1004.25 630.75 C 997.00 621.72 991.12 615.50 981.92 609.08 C 972.72 602.67 963.17 597.64 951.98 595.02 C 940.78 592.41 922.70 592.04 911.33 594.33 C 899.96 596.62 889.73 601.21 880.25 607.25 C 870.78 613.29 864.33 619.43 857.25 628.25 C 850.17 637.07 845.87 646.27 842.02 657.02 C 838.18 667.78 836.13 683.51 837.99 695.01 C 839.86 706.50 842.66 719.00 848.31 728.69 C 853.95 738.39 858.19 746.80 867.25 753.75 C 876.31 760.71 883.48 766.58 894.22 770.78 C 904.97 774.97 919.49 778.87 932.00 777.00 C 944.51 775.13 957.18 777.75 968.08 769.08 C 978.97 760.40 995.20 774.02 984.25 783.25 C 973.29 792.47 963.95 790.81 951.98 794.98 C 940.00 799.14 922.92 797.10 910.93 796.07 C 898.93 795.04 888.20 789.98 877.92 785.08 C 867.64 780.17 860.82 774.16 852.25 766.75 C 843.68 759.35 838.87 751.75 832.70 742.30 C 826.52 732.86 822.95 722.41 820.07 710.93 C 817.19 699.44 818.12 681.93 818.93 669.93 C 819.74 657.92 823.12 645.79 828.77 635.77 C 834.42 625.75 838.16 617.45 846.75 609.75 C 855.34 602.05 860.76 595.08 870.70 589.70 C 880.63 584.31 889.46 578.24 901.08 576.08 C 912.69 573.91 929.31 571.19 942.00 573.00&#xA;M 1180.00 573.00 &#xA;C 1191.46 574.38 1204.19 579.52 1215.07 583.93 C 1225.96 588.33 1234.84 594.51 1243.75 602.25 C 1252.67 609.99 1258.95 617.04 1264.30 627.70 C 1269.66 638.35 1274.80 649.37 1277.78 661.22 C 1280.75 673.07 1282.33 690.79 1280.00 703.00 C 1277.67 715.21 1274.14 727.69 1268.08 738.08 C 1262.01 748.46 1256.73 755.76 1248.25 764.25 C 1239.77 772.74 1232.30 779.14 1221.75 784.75 C 1211.21 790.37 1199.42 794.64 1187.00 796.00 C 1174.58 797.36 1157.39 799.90 1144.98 795.02 C 1132.56 790.14 1121.47 790.84 1109.75 783.25 C 1098.04 775.66 1116.39 753.90 1126.23 764.77 C 1136.07 775.64 1147.69 774.66 1161.00 777.00 C 1174.31 779.34 1190.39 776.15 1201.68 771.68 C 1212.97 767.21 1221.88 762.06 1230.75 753.75 C 1239.62 745.45 1245.29 738.51 1250.77 727.77 C 1256.25 717.03 1260.59 703.66 1261.00 691.00 C 1261.41 678.34 1259.61 662.48 1254.68 651.32 C 1249.75 640.16 1245.22 631.16 1236.75 622.25 C 1228.29 613.34 1220.44 608.36 1209.77 602.23 C 1199.11 596.09 1185.85 593.83 1173.00 593.00 C 1160.15 592.17 1144.18 594.86 1132.93 599.93 C 1121.68 604.99 1114.42 609.89 1105.25 618.25 C 1096.08 626.60 1090.94 634.36 1085.70 645.70 C 1080.45 657.03 1076.36 668.15 1076.00 682.00 C 1075.64 695.85 1076.19 714.48 1076.00 729.00 C 1075.81 743.52 1076.15 760.45 1076.00 775.00 C 1075.85 789.55 1076.20 808.03 1076.00 822.00 C 1075.80 835.97 1076.39 855.71 1076.00 868.00 C 1075.61 880.29 1085.05 899.40 1066.99 899.99 C 1048.94 900.58 1056.92 881.26 1057.00 869.00 C 1057.08 856.74 1057.00 836.98 1057.00 823.00 C 1057.00 809.02 1057.06 790.61 1057.00 776.00 C 1056.94 761.39 1057.17 744.66 1057.00 730.00 C 1056.83 715.34 1057.39 697.16 1057.00 683.00 C 1056.61 668.84 1060.03 656.20 1064.31 644.31 C 1068.58 632.41 1073.24 623.56 1081.25 614.25 C 1089.27 604.95 1096.22 599.96 1105.70 592.70 C 1115.18 585.44 1125.25 580.82 1137.07 577.07 C 1148.90 573.33 1166.62 571.38 1180.00 573.00&#xA;M 387.00 576.00 &#xA;C 399.21 580.51 388.22 598.21 378.00 595.00 C 367.78 591.79 356.66 600.84 347.31 602.31 C 337.95 603.78 331.45 611.61 323.75 616.75 C 316.05 621.89 310.94 628.54 305.25 636.25 C 299.55 643.96 296.38 652.46 293.22 662.22 C 290.06 671.98 289.32 685.64 290.00 697.00 C 290.68 708.36 289.09 723.63 290.00 735.00 C 290.91 746.37 288.26 762.47 290.00 773.00 C 291.74 783.53 288.24 801.44 275.78 796.22 C 263.32 791.01 272.00 774.78 270.00 764.00 C 268.00 753.22 271.09 737.51 270.00 726.00 C 268.91 714.49 270.92 699.46 270.00 688.00 C 269.08 676.54 271.79 664.63 274.78 654.78 C 277.76 644.92 281.64 636.99 286.75 628.75 C 291.87 620.52 296.59 614.29 303.75 607.75 C 310.91 601.22 316.60 595.25 325.08 591.08 C 333.56 586.92 342.14 581.23 351.68 579.68 C 361.21 578.13 376.78 572.23 387.00 576.00&#xA;M 890.00 675.00 &#xA;C 901.95 678.63 894.81 700.45 882.78 695.22 C 870.75 690.00 876.70 670.96 890.00 675.00&#xA;M 923.00 676.00 &#xA;C 934.01 670.04 946.92 684.64 935.75 693.75 C 924.58 702.86 912.27 683.93 923.00 676.00&#xA;M 977.00 675.00 &#xA;C 989.38 678.76 981.18 700.92 969.00 695.00 C 956.82 689.08 964.31 671.15 977.00 675.00 Z" />
    </g>
    <g fill="None"
       fill-opacity="0.0"
       stroke="#000000"
       stroke-opacity="0.99"
       stroke-width="0.3">
        <path d="&#xA;M 80.00 617.00 &#xA;C 88.05 624.53 94.68 631.03 103.75 637.25 C 112.83 643.47 121.07 648.14 131.92 652.08 C 142.78 656.02 155.80 657.80 168.00 659.00 C 180.20 660.20 196.95 658.24 207.99 654.99 C 219.04 651.74 228.84 648.03 238.30 642.30 C 247.76 636.57 254.57 631.27 262.25 623.25 C 269.93 615.23 276.67 608.70 282.08 599.08 C 287.48 589.45 291.74 579.58 294.67 568.67 C 297.61 557.77 300.06 541.90 298.99 530.01 C 297.92 518.12 295.77 503.82 291.77 493.23 C 287.77 482.63 283.68 473.34 277.25 464.75 C 270.83 456.15 266.03 448.26 257.23 441.77 C 248.43 435.28 241.04 428.75 231.02 423.98 C 221.01 419.20 210.24 415.54 199.00 413.00 C 187.76 410.46 170.51 410.65 159.01 412.01 C 147.51 413.37 134.57 417.18 124.69 421.69 C 114.82 426.21 106.26 431.53 97.70 437.70 C 89.14 443.87 82.34 451.00 76.30 459.30 C 70.27 467.60 55.84 470.65 56.01 482.99 C 56.17 495.33 71.70 502.27 80.75 494.75 C 89.80 487.23 84.09 473.63 93.25 466.25 C 102.41 458.87 106.70 451.08 116.75 445.75 C 126.80 440.43 134.57 434.63 145.99 431.99 C 157.41 429.35 172.51 427.65 184.33 428.67 C 196.15 429.69 208.89 432.77 218.92 438.08 C 228.96 443.38 237.06 447.13 245.25 454.75 C 253.43 462.37 259.17 468.55 265.25 477.75 C 271.32 486.96 275.03 497.89 278.22 508.78 C 281.41 519.67 283.14 535.45 281.00 547.00 C 278.86 558.55 277.16 570.72 271.77 580.77 C 266.38 590.82 262.24 599.25 254.25 607.25 C 246.26 615.25 240.29 620.88 230.70 626.70 C 221.11 632.52 211.31 636.27 200.68 639.68 C 190.05 643.09 172.59 644.14 161.22 641.78 C 149.86 639.42 138.27 636.86 128.08 631.92 C 117.88 626.99 111.06 621.99 102.75 614.25 C 94.44 606.51 85.75 599.25 86.99 588.01 C 88.23 576.77 71.96 566.13 61.75 575.75 C 51.55 585.37 60.27 596.13 60.00 609.00 C 59.73 621.87 60.39 639.25 60.00 653.00 C 59.61 666.75 60.80 681.84 60.00 696.00 C 59.20 710.17 61.73 724.53 60.00 739.00 C 58.27 753.47 63.73 768.26 60.00 783.00 C 56.27 797.74 76.97 804.24 80.00 790.00 C 83.03 775.76 78.65 761.37 80.00 747.00 C 81.35 732.63 79.36 717.41 80.00 703.00 C 80.64 688.59 79.66 674.37 80.00 660.00 C 80.34 645.63 79.75 631.36 80.00 617.00&#xA;M 75.00 476.00 &#xA;C 82.26 478.83 76.67 492.75 68.78 488.22 C 60.89 483.69 66.67 472.75 75.00 476.00 Z" />
    </g>
    <g fill="None"
       fill-opacity="0.0"
       stroke="#000000"
       stroke-opacity="0.98"
       stroke-width="0.3">
        <path d="&#xA;M 167.00 433.00 &#xA;C 158.49 431.68 149.89 438.73 149.00 447.00 C 148.11 455.27 154.03 464.42 163.00 464.00 C 171.97 463.58 178.14 455.36 186.98 458.02 C 195.81 460.69 202.40 461.87 209.92 466.08 C 217.45 470.28 222.38 473.54 228.25 479.75 C 234.12 485.96 238.33 489.38 242.23 496.77 C 246.13 504.16 249.63 511.48 251.02 519.98 C 252.42 528.47 252.45 540.75 251.33 549.33 C 250.21 557.90 246.96 565.60 242.92 572.92 C 238.87 580.24 235.16 584.00 229.25 590.25 C 223.34 596.50 218.90 600.16 211.08 604.08 C 203.25 607.99 197.27 609.57 188.02 612.02 C 178.78 614.48 172.20 607.71 163.01 607.01 C 153.82 606.31 148.27 616.40 149.01 623.99 C 149.74 631.59 160.15 641.13 167.92 636.92 C 175.70 632.72 182.06 629.17 190.98 628.98 C 199.89 628.78 208.08 624.63 215.77 621.77 C 223.46 618.91 227.74 613.71 234.30 609.30 C 240.87 604.89 244.95 599.19 250.25 593.25 C 255.55 587.30 258.14 581.13 261.69 573.70 C 265.25 566.26 267.68 557.49 269.00 549.00 C 270.32 540.51 270.00 528.72 268.78 520.22 C 267.56 511.72 264.17 503.32 261.31 495.70 C 258.44 488.07 253.77 482.88 249.30 476.70 C 244.84 470.51 240.39 464.20 233.75 460.25 C 227.10 456.31 222.01 450.31 214.22 448.78 C 206.44 447.24 198.87 439.05 190.00 441.00 C 181.13 442.95 174.01 434.08 167.00 433.00&#xA;M 166.00 442.00 &#xA;C 174.23 444.21 170.69 458.22 162.00 456.00 C 153.30 453.78 156.30 439.39 166.00 442.00&#xA;M 167.00 615.00 &#xA;C 175.13 618.04 169.18 631.83 161.00 628.00 C 152.82 624.17 158.84 611.94 167.00 615.00 Z" />
    </g>
    <g fill="None"
       fill-opacity="0.0"
       stroke="#000000"
       stroke-opacity="0.04"
       stroke-width="0.3">
        <path d="&#xA;M 166.00 442.00 &#xA;C 156.30 439.39 153.30 453.78 162.00 456.00 C 170.69 458.22 174.23 444.21 166.00 442.00 Z" />
    </g>
    <g fill="None"
       fill-opacity="0.0"
       stroke="#000000"
       stroke-opacity="0.98"
       stroke-width="0.3">
        <path d="&#xA;M 181.00 469.00 &#xA;C 168.19 467.76 157.88 472.24 146.69 475.69 C 135.51 479.15 133.36 490.06 122.07 492.07 C 110.79 494.08 106.41 507.66 112.25 516.75 C 118.09 525.85 137.74 524.10 139.07 513.07 C 140.40 502.05 145.44 493.35 156.98 489.98 C 168.51 486.60 180.54 484.65 190.78 489.22 C 201.01 493.80 207.51 498.11 214.25 506.75 C 220.99 515.40 224.54 527.18 224.00 538.00 C 223.46 548.81 219.13 558.49 211.75 566.75 C 204.37 575.02 197.99 579.18 186.67 582.67 C 175.36 586.16 164.22 582.60 152.23 578.77 C 140.24 574.94 142.31 562.27 136.25 553.75 C 130.18 545.23 116.08 545.91 110.92 557.92 C 105.77 569.94 116.48 575.28 125.75 580.25 C 135.03 585.22 139.77 593.95 150.78 596.22 C 161.78 598.50 174.55 603.00 186.00 600.00 C 197.45 596.99 205.99 595.02 214.92 587.92 C 223.85 580.82 228.04 574.80 233.23 565.23 C 238.41 555.66 241.55 543.12 240.99 532.01 C 240.44 520.90 236.32 510.12 230.92 501.08 C 225.52 492.04 219.37 486.01 210.75 480.25 C 202.12 474.50 191.05 469.97 181.00 469.00&#xA;M 127.00 500.00 &#xA;C 135.16 501.80 131.69 516.67 123.00 514.00 C 114.30 511.32 118.65 498.16 127.00 500.00&#xA;M 127.00 557.00 &#xA;C 134.96 558.74 131.81 573.12 123.32 570.66 C 114.84 568.21 118.24 555.08 127.00 557.00 Z" />
    </g>
    <g fill="None"
       fill-opacity="0.0"
       stroke="#000000"
       stroke-opacity="0.01"
       stroke-width="0.3">
        <path d="&#xA;M 75.00 476.00 &#xA;C 66.67 472.75 60.89 483.69 68.78 488.22 C 76.67 492.75 82.26 478.83 75.00 476.00 Z" />
    </g>
    <g fill="None"
       fill-opacity="0.0"
       stroke="#000000"
       stroke-opacity="0.01"
       stroke-width="0.3">
        <path d="&#xA;M 127.00 500.00 &#xA;C 118.65 498.16 114.30 511.32 123.00 514.00 C 131.69 516.67 135.16 501.80 127.00 500.00 Z" />
    </g>
    <g fill="None"
       fill-opacity="0.0"
       stroke="#000000"
       stroke-opacity="0.97"
       stroke-width="0.3">
        <path d="&#xA;M 420.00 536.00 &#xA;C 408.01 531.57 397.60 548.23 409.78 555.22 C 421.95 562.22 432.07 540.45 420.00 536.00 Z" />
    </g>
    <g fill="None"
       fill-opacity="0.0"
       stroke="#000000"
       stroke-opacity="0.01"
       stroke-width="0.3">
        <path d="&#xA;M 127.00 557.00 &#xA;C 118.24 555.08 114.84 568.21 123.32 570.66 C 131.81 573.12 134.96 558.74 127.00 557.00 Z" />
    </g>
    <g fill="None"
       fill-opacity="0.0"
       stroke="#000000"
       stroke-opacity="0.99"
       stroke-width="0.3">
        <path d="&#xA;M 627.00 628.00 &#xA;C 621.36 620.07 617.72 610.93 610.25 603.75 C 602.78 596.57 597.40 590.88 588.75 585.25 C 580.09 579.63 570.57 575.86 560.07 573.93 C 549.57 572.00 534.50 571.60 524.02 574.02 C 513.55 576.45 504.76 580.40 496.08 586.08 C 487.40 591.77 482.04 596.89 474.77 604.77 C 467.50 612.65 464.32 620.83 459.77 630.77 C 455.22 640.71 452.82 650.93 451.78 662.78 C 450.73 674.63 451.47 689.25 451.00 702.00 C 450.53 714.75 452.33 729.04 451.00 742.00 C 449.67 754.96 454.07 769.08 451.00 782.00 C 447.93 794.92 463.55 804.50 468.69 791.69 C 473.84 778.89 468.63 766.19 470.00 753.00 C 471.37 739.81 469.47 724.96 470.00 712.00 C 470.53 699.04 470.01 684.35 470.00 672.00 C 469.99 659.65 471.74 648.45 476.23 638.23 C 480.72 628.00 485.01 622.23 492.25 614.25 C 499.49 606.27 506.55 602.29 515.92 597.92 C 525.28 593.55 539.18 590.75 549.99 592.01 C 560.81 593.26 571.76 596.80 580.25 602.75 C 588.75 608.69 594.56 613.66 601.25 621.75 C 607.93 629.85 610.27 638.69 614.02 648.98 C 617.78 659.26 616.46 674.24 617.00 686.00 C 617.54 697.76 616.29 714.32 617.00 726.00 C 617.71 737.68 615.65 755.50 617.00 766.00 C 618.35 776.50 611.03 796.57 625.00 798.00 C 638.97 799.43 636.21 778.56 636.00 768.00 C 635.79 757.44 636.08 739.78 636.00 728.00 C 635.92 716.22 636.00 699.95 636.00 688.00 C 636.00 676.05 635.09 660.74 638.07 650.07 C 641.06 639.41 644.60 631.40 651.23 623.23 C 657.86 615.06 662.28 608.72 671.30 603.30 C 680.32 597.89 690.29 593.35 701.00 592.00 C 711.71 590.65 726.69 592.76 735.92 597.08 C 745.16 601.39 752.36 605.94 759.25 613.75 C 766.14 621.56 771.98 626.94 776.03 636.98 C 780.07 647.01 782.62 657.17 784.00 669.00 C 785.38 680.83 783.07 696.15 784.00 709.00 C 784.93 721.85 782.91 735.45 784.00 749.00 C 785.09 762.55 782.04 775.78 784.00 790.00 C 785.96 804.22 804.48 796.67 801.00 783.00 C 797.52 769.33 802.62 756.28 801.00 743.00 C 799.38 729.72 801.84 715.86 801.00 703.00 C 800.16 690.14 801.62 675.11 801.00 663.00 C 800.38 650.89 797.24 640.95 793.31 630.70 C 789.37 620.44 783.99 613.59 777.77 605.23 C 771.55 596.87 765.21 591.81 756.70 586.30 C 748.18 580.80 739.21 576.31 729.00 574.00 C 718.79 571.69 702.47 571.25 692.07 573.07 C 681.67 574.90 672.72 580.14 664.08 585.08 C 655.43 590.01 649.03 595.87 642.25 603.25 C 635.46 610.63 630.53 618.93 627.00 628.00 Z" />
    </g>
    <g fill="None"
       fill-opacity="0.0"
       stroke="#000000"
       stroke-opacity="0.99"
       stroke-width="0.3">
        <path d="&#xA;M 417.00 573.00 &#xA;C 401.47 569.95 403.60 589.89 404.00 601.00 C 404.40 612.11 403.70 629.67 404.00 642.00 C 404.30 654.33 403.61 670.34 404.00 683.00 C 404.39 695.66 403.25 711.68 404.00 724.00 C 404.75 736.32 402.39 753.92 404.00 765.00 C 405.61 776.08 397.49 794.01 411.33 797.67 C 425.17 801.33 425.06 780.92 424.00 770.00 C 422.94 759.08 424.55 741.21 424.00 729.00 C 423.45 716.79 424.41 700.53 424.00 688.00 C 423.59 675.47 424.55 659.09 424.00 647.00 C 423.45 634.91 425.05 616.59 424.00 606.00 C 422.95 595.41 428.96 575.35 417.00 573.00 Z" />
    </g>
    <g fill="None"
       fill-opacity="0.0"
       stroke="#000000"
       stroke-opacity="0.99"
       stroke-width="0.3">
        <path d="&#xA;M 942.00 573.00 &#xA;C 929.31 571.19 912.69 573.91 901.08 576.08 C 889.46 578.24 880.63 584.31 870.70 589.70 C 860.76 595.08 855.34 602.05 846.75 609.75 C 838.16 617.45 834.42 625.75 828.77 635.77 C 823.12 645.79 819.74 657.92 818.93 669.93 C 818.12 681.93 817.19 699.44 820.07 710.93 C 822.95 722.41 826.52 732.86 832.70 742.30 C 838.87 751.75 843.68 759.35 852.25 766.75 C 860.82 774.16 867.64 780.17 877.92 785.08 C 888.20 789.98 898.93 795.04 910.93 796.07 C 922.92 797.10 940.00 799.14 951.98 794.98 C 963.95 790.81 973.29 792.47 984.25 783.25 C 995.20 774.02 978.97 760.40 968.08 769.08 C 957.18 777.75 944.51 775.13 932.00 777.00 C 919.49 778.87 904.97 774.97 894.22 770.78 C 883.48 766.58 876.31 760.71 867.25 753.75 C 858.19 746.80 853.95 738.39 848.31 728.69 C 842.66 719.00 839.86 706.50 837.99 695.01 C 836.13 683.51 838.18 667.78 842.02 657.02 C 845.87 646.27 850.17 637.07 857.25 628.25 C 864.33 619.43 870.78 613.29 880.25 607.25 C 889.73 601.21 899.96 596.62 911.33 594.33 C 922.70 592.04 940.78 592.41 951.98 595.02 C 963.17 597.64 972.72 602.67 981.92 609.08 C 991.12 615.50 997.00 621.72 1004.25 630.75 C 1011.49 639.79 1015.16 648.53 1018.67 660.33 C 1022.19 672.12 1022.99 686.18 1023.00 700.00 C 1023.01 713.82 1022.36 729.41 1023.00 744.00 C 1023.64 758.59 1021.30 772.69 1023.00 788.00 C 1024.71 803.30 1045.45 795.86 1042.00 781.00 C 1038.54 766.14 1043.43 751.36 1042.00 737.00 C 1040.57 722.64 1042.36 706.66 1042.00 693.00 C 1041.64 679.34 1041.19 665.69 1036.78 654.22 C 1032.36 642.76 1029.18 633.51 1023.25 623.75 C 1017.32 614.00 1011.70 607.26 1003.25 599.75 C 994.79 592.25 985.27 588.47 975.23 583.77 C 965.19 579.07 952.75 574.53 942.00 573.00 Z" />
    </g>
    <g fill="None"
       fill-opacity="0.0"
       stroke="#000000"
       stroke-opacity="1.00"
       stroke-width="0.3">
        <path d="&#xA;M 1180.00 573.00 &#xA;C 1166.62 571.38 1148.90 573.33 1137.07 577.07 C 1125.25 580.82 1115.18 585.44 1105.70 592.70 C 1096.22 599.96 1089.27 604.95 1081.25 614.25 C 1073.24 623.56 1068.58 632.41 1064.31 644.31 C 1060.03 656.20 1056.61 668.84 1057.00 683.00 C 1057.39 697.16 1056.83 715.34 1057.00 730.00 C 1057.17 744.66 1056.94 761.39 1057.00 776.00 C 1057.06 790.61 1057.00 809.02 1057.00 823.00 C 1057.00 836.98 1057.08 856.74 1057.00 869.00 C 1056.92 881.26 1048.94 900.58 1066.99 899.99 C 1085.05 899.40 1075.61 880.29 1076.00 868.00 C 1076.39 855.71 1075.80 835.97 1076.00 822.00 C 1076.20 808.03 1075.85 789.55 1076.00 775.00 C 1076.15 760.45 1075.81 743.52 1076.00 729.00 C 1076.19 714.48 1075.64 695.85 1076.00 682.00 C 1076.36 668.15 1080.45 657.03 1085.70 645.70 C 1090.94 634.36 1096.08 626.60 1105.25 618.25 C 1114.42 609.89 1121.68 604.99 1132.93 599.93 C 1144.18 594.86 1160.15 592.17 1173.00 593.00 C 1185.85 593.83 1199.11 596.09 1209.77 602.23 C 1220.44 608.36 1228.29 613.34 1236.75 622.25 C 1245.22 631.16 1249.75 640.16 1254.68 651.32 C 1259.61 662.48 1261.41 678.34 1261.00 691.00 C 1260.59 703.66 1256.25 717.03 1250.77 727.77 C 1245.29 738.51 1239.62 745.45 1230.75 753.75 C 1221.88 762.06 1212.97 767.21 1201.68 771.68 C 1190.39 776.15 1174.31 779.34 1161.00 777.00 C 1147.69 774.66 1136.07 775.64 1126.23 764.77 C 1116.39 753.90 1098.04 775.66 1109.75 783.25 C 1121.47 790.84 1132.56 790.14 1144.98 795.02 C 1157.39 799.90 1174.58 797.36 1187.00 796.00 C 1199.42 794.64 1211.21 790.37 1221.75 784.75 C 1232.30 779.14 1239.77 772.74 1248.25 764.25 C 1256.73 755.76 1262.01 748.46 1268.08 738.08 C 1274.14 727.69 1277.67 715.21 1280.00 703.00 C 1282.33 690.79 1280.75 673.07 1277.78 661.22 C 1274.80 649.37 1269.66 638.35 1264.30 627.70 C 1258.95 617.04 1252.67 609.99 1243.75 602.25 C 1234.84 594.51 1225.96 588.33 1215.07 583.93 C 1204.19 579.52 1191.46 574.38 1180.00 573.00&#xA;M 1122.00 766.00 &#xA;C 1131.55 769.14 1126.12 786.25 1115.78 782.22 C 1105.44 778.19 1110.66 762.27 1122.00 766.00&#xA;M 1069.00 879.00 &#xA;C 1079.07 881.55 1074.85 898.80 1064.33 895.67 C 1053.81 892.54 1058.53 876.35 1069.00 879.00 Z" />
    </g>
    <g fill="None"
       fill-opacity="0.0"
       stroke="#000000"
       stroke-opacity="0.99"
       stroke-width="0.3">
        <path d="&#xA;M 387.00 576.00 &#xA;C 376.78 572.23 361.21 578.13 351.68 579.68 C 342.14 581.23 333.56 586.92 325.08 591.08 C 316.60 595.25 310.91 601.22 303.75 607.75 C 296.59 614.29 291.87 620.52 286.75 628.75 C 281.64 636.99 277.76 644.92 274.78 654.78 C 271.79 664.63 269.08 676.54 270.00 688.00 C 270.92 699.46 268.91 714.49 270.00 726.00 C 271.09 737.51 268.00 753.22 270.00 764.00 C 272.00 774.78 263.32 791.01 275.78 796.22 C 288.24 801.44 291.74 783.53 290.00 773.00 C 288.26 762.47 290.91 746.37 290.00 735.00 C 289.09 723.63 290.68 708.36 290.00 697.00 C 289.32 685.64 290.06 671.98 293.22 662.22 C 296.38 652.46 299.55 643.96 305.25 636.25 C 310.94 628.54 316.05 621.89 323.75 616.75 C 331.45 611.61 337.95 603.78 347.31 602.31 C 356.66 600.84 367.78 591.79 378.00 595.00 C 388.22 598.21 399.21 580.51 387.00 576.00 Z" />
    </g>
    <g fill="None"
       fill-opacity="0.0"
       stroke="#000000"
       stroke-opacity="0.01"
       stroke-width="0.3">
        <path d="&#xA;M 167.00 615.00 &#xA;C 158.84 611.94 152.82 624.17 161.00 628.00 C 169.18 631.83 175.13 618.04 167.00 615.00 Z" />
    </g>
    <g fill="None"
       fill-opacity="0.0"
       stroke="#000000"
       stroke-opacity="0.98"
       stroke-width="0.3">
        <path d="&#xA;M 890.00 675.00 &#xA;C 876.70 670.96 870.75 690.00 882.78 695.22 C 894.81 700.45 901.95 678.63 890.00 675.00 Z" />
    </g>
    <g fill="None"
       fill-opacity="0.0"
       stroke="#000000"
       stroke-opacity="0.96"
       stroke-width="0.3">
        <path d="&#xA;M 923.00 676.00 &#xA;C 912.27 683.93 924.58 702.86 935.75 693.75 C 946.92 684.64 934.01 670.04 923.00 676.00 Z" />
    </g>
    <g fill="None"
       fill-opacity="0.0"
       stroke="#000000"
       stroke-opacity="0.98"
       stroke-width="0.3">
        <path d="&#xA;M 977.00 675.00 &#xA;C 964.31 671.15 956.82 689.08 969.00 695.00 C 981.18 700.92 989.38 678.76 977.00 675.00 Z" />
    </g>
    <g fill="None"
       fill-opacity="0.0"
       stroke="#F2F3F5"
       stroke-opacity="1.00"
       stroke-width="0.3">
        <path d="&#xA;M 1122.00 766.00 &#xA;C 1110.66 762.27 1105.44 778.19 1115.78 782.22 C 1126.12 786.25 1131.55 769.14 1122.00 766.00 Z" />
    </g>
    <g fill="None"
       fill-opacity="0.0"
       stroke="#F2F3F5"
       stroke-opacity="1.00"
       stroke-width="0.3">
        <path d="&#xA;M 1069.00 879.00 &#xA;C 1058.53 876.35 1053.81 892.54 1064.33 895.67 C 1074.85 898.80 1079.07 881.55 1069.00 879.00 Z" />
    </g>
    <g fill="#000000"
       fill-opacity="0.00"
       stroke="None">
        <path d="&#xA;M 0.00 1912.00 &#xA;L 1338.00 1912.00&#xA;L 1338.00 0.00&#xA;L 0.00 0.00&#xA;L 0.00 1912.00&#xA;M 80.00 617.00 &#xA;C 79.75 631.36 80.34 645.63 80.00 660.00 C 79.66 674.37 80.64 688.59 80.00 703.00 C 79.36 717.41 81.35 732.63 80.00 747.00 C 78.65 761.37 83.03 775.76 80.00 790.00 C 76.97 804.24 56.27 797.74 60.00 783.00 C 63.73 768.26 58.27 753.47 60.00 739.00 C 61.73 724.53 59.20 710.17 60.00 696.00 C 60.80 681.84 59.61 666.75 60.00 653.00 C 60.39 639.25 59.73 621.87 60.00 609.00 C 60.27 596.13 51.55 585.37 61.75 575.75 C 71.96 566.13 88.23 576.77 86.99 588.01 C 85.75 599.25 94.44 606.51 102.75 614.25 C 111.06 621.99 117.88 626.99 128.08 631.92 C 138.27 636.86 149.86 639.42 161.22 641.78 C 172.59 644.14 190.05 643.09 200.68 639.68 C 211.31 636.27 221.11 632.52 230.70 626.70 C 240.29 620.88 246.26 615.25 254.25 607.25 C 262.24 599.25 266.38 590.82 271.77 580.77 C 277.16 570.72 278.86 558.55 281.00 547.00 C 283.14 535.45 281.41 519.67 278.22 508.78 C 275.03 497.89 271.32 486.96 265.25 477.75 C 259.17 468.55 253.43 462.37 245.25 454.75 C 237.06 447.13 228.96 443.38 218.92 438.08 C 208.89 432.77 196.15 429.69 184.33 428.67 C 172.51 427.65 157.41 429.35 145.99 431.99 C 134.57 434.63 126.80 440.43 116.75 445.75 C 106.70 451.08 102.41 458.87 93.25 466.25 C 84.09 473.63 89.80 487.23 80.75 494.75 C 71.70 502.27 56.17 495.33 56.01 482.99 C 55.84 470.65 70.27 467.60 76.30 459.30 C 82.34 451.00 89.14 443.87 97.70 437.70 C 106.26 431.53 114.82 426.21 124.69 421.69 C 134.57 417.18 147.51 413.37 159.01 412.01 C 170.51 410.65 187.76 410.46 199.00 413.00 C 210.24 415.54 221.01 419.20 231.02 423.98 C 241.04 428.75 248.43 435.28 257.23 441.77 C 266.03 448.26 270.83 456.15 277.25 464.75 C 283.68 473.34 287.77 482.63 291.77 493.23 C 295.77 503.82 297.92 518.12 298.99 530.01 C 300.06 541.90 297.61 557.77 294.67 568.67 C 291.74 579.58 287.48 589.45 282.08 599.08 C 276.67 608.70 269.93 615.23 262.25 623.25 C 254.57 631.27 247.76 636.57 238.30 642.30 C 228.84 648.03 219.04 651.74 207.99 654.99 C 196.95 658.24 180.20 660.20 168.00 659.00 C 155.80 657.80 142.78 656.02 131.92 652.08 C 121.07 648.14 112.83 643.47 103.75 637.25 C 94.68 631.03 88.05 624.53 80.00 617.00&#xA;M 167.00 433.00 &#xA;C 174.01 434.08 181.13 442.95 190.00 441.00 C 198.87 439.05 206.44 447.24 214.22 448.78 C 222.01 450.31 227.10 456.31 233.75 460.25 C 240.39 464.20 244.84 470.51 249.30 476.70 C 253.77 482.88 258.44 488.07 261.31 495.70 C 264.17 503.32 267.56 511.72 268.78 520.22 C 270.00 528.72 270.32 540.51 269.00 549.00 C 267.68 557.49 265.25 566.26 261.69 573.70 C 258.14 581.13 255.55 587.30 250.25 593.25 C 244.95 599.19 240.87 604.89 234.30 609.30 C 227.74 613.71 223.46 618.91 215.77 621.77 C 208.08 624.63 199.89 628.78 190.98 628.98 C 182.06 629.17 175.70 632.72 167.92 636.92 C 160.15 641.13 149.74 631.59 149.01 623.99 C 148.27 616.40 153.82 606.31 163.01 607.01 C 172.20 607.71 178.78 614.48 188.02 612.02 C 197.27 609.57 203.25 607.99 211.08 604.08 C 218.90 600.16 223.34 596.50 229.25 590.25 C 235.16 584.00 238.87 580.24 242.92 572.92 C 246.96 565.60 250.21 557.90 251.33 549.33 C 252.45 540.75 252.42 528.47 251.02 519.98 C 249.63 511.48 246.13 504.16 242.23 496.77 C 238.33 489.38 234.12 485.96 228.25 479.75 C 222.38 473.54 217.45 470.28 209.92 466.08 C 202.40 461.87 195.81 460.69 186.98 458.02 C 178.14 455.36 171.97 463.58 163.00 464.00 C 154.03 464.42 148.11 455.27 149.00 447.00 C 149.89 438.73 158.49 431.68 167.00 433.00&#xA;M 181.00 469.00 &#xA;C 191.05 469.97 202.12 474.50 210.75 480.25 C 219.37 486.01 225.52 492.04 230.92 501.08 C 236.32 510.12 240.44 520.90 240.99 532.01 C 241.55 543.12 238.41 555.66 233.23 565.23 C 228.04 574.80 223.85 580.82 214.92 587.92 C 205.99 595.02 197.45 596.99 186.00 600.00 C 174.55 603.00 161.78 598.50 150.78 596.22 C 139.77 593.95 135.03 585.22 125.75 580.25 C 116.48 575.28 105.77 569.94 110.92 557.92 C 116.08 545.91 130.18 545.23 136.25 553.75 C 142.31 562.27 140.24 574.94 152.23 578.77 C 164.22 582.60 175.36 586.16 186.67 582.67 C 197.99 579.18 204.37 575.02 211.75 566.75 C 219.13 558.49 223.46 548.81 224.00 538.00 C 224.54 527.18 220.99 515.40 214.25 506.75 C 207.51 498.11 201.01 493.80 190.78 489.22 C 180.54 484.65 168.51 486.60 156.98 489.98 C 145.44 493.35 140.40 502.05 139.07 513.07 C 137.74 524.10 118.09 525.85 112.25 516.75 C 106.41 507.66 110.79 494.08 122.07 492.07 C 133.36 490.06 135.51 479.15 146.69 475.69 C 157.88 472.24 168.19 467.76 181.00 469.00&#xA;M 420.00 536.00 &#xA;C 432.07 540.45 421.95 562.22 409.78 555.22 C 397.60 548.23 408.01 531.57 420.00 536.00&#xA;M 627.00 628.00 &#xA;C 630.53 618.93 635.46 610.63 642.25 603.25 C 649.03 595.87 655.43 590.01 664.08 585.08 C 672.72 580.14 681.67 574.90 692.07 573.07 C 702.47 571.25 718.79 571.69 729.00 574.00 C 739.21 576.31 748.18 580.80 756.70 586.30 C 765.21 591.81 771.55 596.87 777.77 605.23 C 783.99 613.59 789.37 620.44 793.31 630.70 C 797.24 640.95 800.38 650.89 801.00 663.00 C 801.62 675.11 800.16 690.14 801.00 703.00 C 801.84 715.86 799.38 729.72 801.00 743.00 C 802.62 756.28 797.52 769.33 801.00 783.00 C 804.48 796.67 785.96 804.22 784.00 790.00 C 782.04 775.78 785.09 762.55 784.00 749.00 C 782.91 735.45 784.93 721.85 784.00 709.00 C 783.07 696.15 785.38 680.83 784.00 669.00 C 782.62 657.17 780.07 647.01 776.03 636.98 C 771.98 626.94 766.14 621.56 759.25 613.75 C 752.36 605.94 745.16 601.39 735.92 597.08 C 726.69 592.76 711.71 590.65 701.00 592.00 C 690.29 593.35 680.32 597.89 671.30 603.30 C 662.28 608.72 657.86 615.06 651.23 623.23 C 644.60 631.40 641.06 639.41 638.07 650.07 C 635.09 660.74 636.00 676.05 636.00 688.00 C 636.00 699.95 635.92 716.22 636.00 728.00 C 636.08 739.78 635.79 757.44 636.00 768.00 C 636.21 778.56 638.97 799.43 625.00 798.00 C 611.03 796.57 618.35 776.50 617.00 766.00 C 615.65 755.50 617.71 737.68 617.00 726.00 C 616.29 714.32 617.54 697.76 617.00 686.00 C 616.46 674.24 617.78 659.26 614.02 648.98 C 610.27 638.69 607.93 629.85 601.25 621.75 C 594.56 613.66 588.75 608.69 580.25 602.75 C 571.76 596.80 560.81 593.26 549.99 592.01 C 539.18 590.75 525.28 593.55 515.92 597.92 C 506.55 602.29 499.49 606.27 492.25 614.25 C 485.01 622.23 480.72 628.00 476.23 638.23 C 471.74 648.45 469.99 659.65 470.00 672.00 C 470.01 684.35 470.53 699.04 470.00 712.00 C 469.47 724.96 471.37 739.81 470.00 753.00 C 468.63 766.19 473.84 778.89 468.69 791.69 C 463.55 804.50 447.93 794.92 451.00 782.00 C 454.07 769.08 449.67 754.96 451.00 742.00 C 452.33 729.04 450.53 714.75 451.00 702.00 C 451.47 689.25 450.73 674.63 451.78 662.78 C 452.82 650.93 455.22 640.71 459.77 630.77 C 464.32 620.83 467.50 612.65 474.77 604.77 C 482.04 596.89 487.40 591.77 496.08 586.08 C 504.76 580.40 513.55 576.45 524.02 574.02 C 534.50 571.60 549.57 572.00 560.07 573.93 C 570.57 575.86 580.09 579.63 588.75 585.25 C 597.40 590.88 602.78 596.57 610.25 603.75 C 617.72 610.93 621.36 620.07 627.00 628.00&#xA;M 417.00 573.00 &#xA;C 428.96 575.35 422.95 595.41 424.00 606.00 C 425.05 616.59 423.45 634.91 424.00 647.00 C 424.55 659.09 423.59 675.47 424.00 688.00 C 424.41 700.53 423.45 716.79 424.00 729.00 C 424.55 741.21 422.94 759.08 424.00 770.00 C 425.06 780.92 425.17 801.33 411.33 797.67 C 397.49 794.01 405.61 776.08 404.00 765.00 C 402.39 753.92 404.75 736.32 404.00 724.00 C 403.25 711.68 404.39 695.66 404.00 683.00 C 403.61 670.34 404.30 654.33 404.00 642.00 C 403.70 629.67 404.40 612.11 404.00 601.00 C 403.60 589.89 401.47 569.95 417.00 573.00&#xA;M 942.00 573.00 &#xA;C 952.75 574.53 965.19 579.07 975.23 583.77 C 985.27 588.47 994.79 592.25 1003.25 599.75 C 1011.70 607.26 1017.32 614.00 1023.25 623.75 C 1029.18 633.51 1032.36 642.76 1036.78 654.22 C 1041.19 665.69 1041.64 679.34 1042.00 693.00 C 1042.36 706.66 1040.57 722.64 1042.00 737.00 C 1043.43 751.36 1038.54 766.14 1042.00 781.00 C 1045.45 795.86 1024.71 803.30 1023.00 788.00 C 1021.30 772.69 1023.64 758.59 1023.00 744.00 C 1022.36 729.41 1023.01 713.82 1023.00 700.00 C 1022.99 686.18 1022.19 672.12 1018.67 660.33 C 1015.16 648.53 1011.49 639.79 1004.25 630.75 C 997.00 621.72 991.12 615.50 981.92 609.08 C 972.72 602.67 963.17 597.64 951.98 595.02 C 940.78 592.41 922.70 592.04 911.33 594.33 C 899.96 596.62 889.73 601.21 880.25 607.25 C 870.78 613.29 864.33 619.43 857.25 628.25 C 850.17 637.07 845.87 646.27 842.02 657.02 C 838.18 667.78 836.13 683.51 837.99 695.01 C 839.86 706.50 842.66 719.00 848.31 728.69 C 853.95 738.39 858.19 746.80 867.25 753.75 C 876.31 760.71 883.48 766.58 894.22 770.78 C 904.97 774.97 919.49 778.87 932.00 777.00 C 944.51 775.13 957.18 777.75 968.08 769.08 C 978.97 760.40 995.20 774.02 984.25 783.25 C 973.29 792.47 963.95 790.81 951.98 794.98 C 940.00 799.14 922.92 797.10 910.93 796.07 C 898.93 795.04 888.20 789.98 877.92 785.08 C 867.64 780.17 860.82 774.16 852.25 766.75 C 843.68 759.35 838.87 751.75 832.70 742.30 C 826.52 732.86 822.95 722.41 820.07 710.93 C 817.19 699.44 818.12 681.93 818.93 669.93 C 819.74 657.92 823.12 645.79 828.77 635.77 C 834.42 625.75 838.16 617.45 846.75 609.75 C 855.34 602.05 860.76 595.08 870.70 589.70 C 880.63 584.31 889.46 578.24 901.08 576.08 C 912.69 573.91 929.31 571.19 942.00 573.00&#xA;M 1180.00 573.00 &#xA;C 1191.46 574.38 1204.19 579.52 1215.07 583.93 C 1225.96 588.33 1234.84 594.51 1243.75 602.25 C 1252.67 609.99 1258.95 617.04 1264.30 627.70 C 1269.66 638.35 1274.80 649.37 1277.78 661.22 C 1280.75 673.07 1282.33 690.79 1280.00 703.00 C 1277.67 715.21 1274.14 727.69 1268.08 738.08 C 1262.01 748.46 1256.73 755.76 1248.25 764.25 C 1239.77 772.74 1232.30 779.14 1221.75 784.75 C 1211.21 790.37 1199.42 794.64 1187.00 796.00 C 1174.58 797.36 1157.39 799.90 1144.98 795.02 C 1132.56 790.14 1121.47 790.84 1109.75 783.25 C 1098.04 775.66 1116.39 753.90 1126.23 764.77 C 1136.07 775.64 1147.69 774.66 1161.00 777.00 C 1174.31 779.34 1190.39 776.15 1201.68 771.68 C 1212.97 767.21 1221.88 762.06 1230.75 753.75 C 1239.62 745.45 1245.29 738.51 1250.77 727.77 C 1256.25 717.03 1260.59 703.66 1261.00 691.00 C 1261.41 678.34 1259.61 662.48 1254.68 651.32 C 1249.75 640.16 1245.22 631.16 1236.75 622.25 C 1228.29 613.34 1220.44 608.36 1209.77 602.23 C 1199.11 596.09 1185.85 593.83 1173.00 593.00 C 1160.15 592.17 1144.18 594.86 1132.93 599.93 C 1121.68 604.99 1114.42 609.89 1105.25 618.25 C 1096.08 626.60 1090.94 634.36 1085.70 645.70 C 1080.45 657.03 1076.36 668.15 1076.00 682.00 C 1075.64 695.85 1076.19 714.48 1076.00 729.00 C 1075.81 743.52 1076.15 760.45 1076.00 775.00 C 1075.85 789.55 1076.20 808.03 1076.00 822.00 C 1075.80 835.97 1076.39 855.71 1076.00 868.00 C 1075.61 880.29 1085.05 899.40 1066.99 899.99 C 1048.94 900.58 1056.92 881.26 1057.00 869.00 C 1057.08 856.74 1057.00 836.98 1057.00 823.00 C 1057.00 809.02 1057.06 790.61 1057.00 776.00 C 1056.94 761.39 1057.17 744.66 1057.00 730.00 C 1056.83 715.34 1057.39 697.16 1057.00 683.00 C 1056.61 668.84 1060.03 656.20 1064.31 644.31 C 1068.58 632.41 1073.24 623.56 1081.25 614.25 C 1089.27 604.95 1096.22 599.96 1105.70 592.70 C 1115.18 585.44 1125.25 580.82 1137.07 577.07 C 1148.90 573.33 1166.62 571.38 1180.00 573.00&#xA;M 387.00 576.00 &#xA;C 399.21 580.51 388.22 598.21 378.00 595.00 C 367.78 591.79 356.66 600.84 347.31 602.31 C 337.95 603.78 331.45 611.61 323.75 616.75 C 316.05 621.89 310.94 628.54 305.25 636.25 C 299.55 643.96 296.38 652.46 293.22 662.22 C 290.06 671.98 289.32 685.64 290.00 697.00 C 290.68 708.36 289.09 723.63 290.00 735.00 C 290.91 746.37 288.26 762.47 290.00 773.00 C 291.74 783.53 288.24 801.44 275.78 796.22 C 263.32 791.01 272.00 774.78 270.00 764.00 C 268.00 753.22 271.09 737.51 270.00 726.00 C 268.91 714.49 270.92 699.46 270.00 688.00 C 269.08 676.54 271.79 664.63 274.78 654.78 C 277.76 644.92 281.64 636.99 286.75 628.75 C 291.87 620.52 296.59 614.29 303.75 607.75 C 310.91 601.22 316.60 595.25 325.08 591.08 C 333.56 586.92 342.14 581.23 351.68 579.68 C 361.21 578.13 376.78 572.23 387.00 576.00&#xA;M 890.00 675.00 &#xA;C 901.95 678.63 894.81 700.45 882.78 695.22 C 870.75 690.00 876.70 670.96 890.00 675.00&#xA;M 923.00 676.00 &#xA;C 934.01 670.04 946.92 684.64 935.75 693.75 C 924.58 702.86 912.27 683.93 923.00 676.00&#xA;M 977.00 675.00 &#xA;C 989.38 678.76 981.18 700.92 969.00 695.00 C 956.82 689.08 964.31 671.15 977.00 675.00 Z" />
    </g>
    <g fill="#000000"
       fill-opacity="0.99"
       stroke="None">
        <path d="&#xA;M 80.00 617.00 &#xA;C 88.05 624.53 94.68 631.03 103.75 637.25 C 112.83 643.47 121.07 648.14 131.92 652.08 C 142.78 656.02 155.80 657.80 168.00 659.00 C 180.20 660.20 196.95 658.24 207.99 654.99 C 219.04 651.74 228.84 648.03 238.30 642.30 C 247.76 636.57 254.57 631.27 262.25 623.25 C 269.93 615.23 276.67 608.70 282.08 599.08 C 287.48 589.45 291.74 579.58 294.67 568.67 C 297.61 557.77 300.06 541.90 298.99 530.01 C 297.92 518.12 295.77 503.82 291.77 493.23 C 287.77 482.63 283.68 473.34 277.25 464.75 C 270.83 456.15 266.03 448.26 257.23 441.77 C 248.43 435.28 241.04 428.75 231.02 423.98 C 221.01 419.20 210.24 415.54 199.00 413.00 C 187.76 410.46 170.51 410.65 159.01 412.01 C 147.51 413.37 134.57 417.18 124.69 421.69 C 114.82 426.21 106.26 431.53 97.70 437.70 C 89.14 443.87 82.34 451.00 76.30 459.30 C 70.27 467.60 55.84 470.65 56.01 482.99 C 56.17 495.33 71.70 502.27 80.75 494.75 C 89.80 487.23 84.09 473.63 93.25 466.25 C 102.41 458.87 106.70 451.08 116.75 445.75 C 126.80 440.43 134.57 434.63 145.99 431.99 C 157.41 429.35 172.51 427.65 184.33 428.67 C 196.15 429.69 208.89 432.77 218.92 438.08 C 228.96 443.38 237.06 447.13 245.25 454.75 C 253.43 462.37 259.17 468.55 265.25 477.75 C 271.32 486.96 275.03 497.89 278.22 508.78 C 281.41 519.67 283.14 535.45 281.00 547.00 C 278.86 558.55 277.16 570.72 271.77 580.77 C 266.38 590.82 262.24 599.25 254.25 607.25 C 246.26 615.25 240.29 620.88 230.70 626.70 C 221.11 632.52 211.31 636.27 200.68 639.68 C 190.05 643.09 172.59 644.14 161.22 641.78 C 149.86 639.42 138.27 636.86 128.08 631.92 C 117.88 626.99 111.06 621.99 102.75 614.25 C 94.44 606.51 85.75 599.25 86.99 588.01 C 88.23 576.77 71.96 566.13 61.75 575.75 C 51.55 585.37 60.27 596.13 60.00 609.00 C 59.73 621.87 60.39 639.25 60.00 653.00 C 59.61 666.75 60.80 681.84 60.00 696.00 C 59.20 710.17 61.73 724.53 60.00 739.00 C 58.27 753.47 63.73 768.26 60.00 783.00 C 56.27 797.74 76.97 804.24 80.00 790.00 C 83.03 775.76 78.65 761.37 80.00 747.00 C 81.35 732.63 79.36 717.41 80.00 703.00 C 80.64 688.59 79.66 674.37 80.00 660.00 C 80.34 645.63 79.75 631.36 80.00 617.00&#xA;M 75.00 476.00 &#xA;C 82.26 478.83 76.67 492.75 68.78 488.22 C 60.89 483.69 66.67 472.75 75.00 476.00 Z" />
    </g>
    <g fill="#000000"
       fill-opacity="0.98"
       stroke="None">
        <path d="&#xA;M 167.00 433.00 &#xA;C 158.49 431.68 149.89 438.73 149.00 447.00 C 148.11 455.27 154.03 464.42 163.00 464.00 C 171.97 463.58 178.14 455.36 186.98 458.02 C 195.81 460.69 202.40 461.87 209.92 466.08 C 217.45 470.28 222.38 473.54 228.25 479.75 C 234.12 485.96 238.33 489.38 242.23 496.77 C 246.13 504.16 249.63 511.48 251.02 519.98 C 252.42 528.47 252.45 540.75 251.33 549.33 C 250.21 557.90 246.96 565.60 242.92 572.92 C 238.87 580.24 235.16 584.00 229.25 590.25 C 223.34 596.50 218.90 600.16 211.08 604.08 C 203.25 607.99 197.27 609.57 188.02 612.02 C 178.78 614.48 172.20 607.71 163.01 607.01 C 153.82 606.31 148.27 616.40 149.01 623.99 C 149.74 631.59 160.15 641.13 167.92 636.92 C 175.70 632.72 182.06 629.17 190.98 628.98 C 199.89 628.78 208.08 624.63 215.77 621.77 C 223.46 618.91 227.74 613.71 234.30 609.30 C 240.87 604.89 244.95 599.19 250.25 593.25 C 255.55 587.30 258.14 581.13 261.69 573.70 C 265.25 566.26 267.68 557.49 269.00 549.00 C 270.32 540.51 270.00 528.72 268.78 520.22 C 267.56 511.72 264.17 503.32 261.31 495.70 C 258.44 488.07 253.77 482.88 249.30 476.70 C 244.84 470.51 240.39 464.20 233.75 460.25 C 227.10 456.31 222.01 450.31 214.22 448.78 C 206.44 447.24 198.87 439.05 190.00 441.00 C 181.13 442.95 174.01 434.08 167.00 433.00&#xA;M 166.00 442.00 &#xA;C 174.23 444.21 170.69 458.22 162.00 456.00 C 153.30 453.78 156.30 439.39 166.00 442.00&#xA;M 167.00 615.00 &#xA;C 175.13 618.04 169.18 631.83 161.00 628.00 C 152.82 624.17 158.84 611.94 167.00 615.00 Z" />
    </g>
    <g fill="#000000"
       fill-opacity="0.04"
       stroke="None">
        <path d="&#xA;M 166.00 442.00 &#xA;C 156.30 439.39 153.30 453.78 162.00 456.00 C 170.69 458.22 174.23 444.21 166.00 442.00 Z" />
    </g>
    <g fill="#000000"
       fill-opacity="0.98"
       stroke="None">
        <path d="&#xA;M 181.00 469.00 &#xA;C 168.19 467.76 157.88 472.24 146.69 475.69 C 135.51 479.15 133.36 490.06 122.07 492.07 C 110.79 494.08 106.41 507.66 112.25 516.75 C 118.09 525.85 137.74 524.10 139.07 513.07 C 140.40 502.05 145.44 493.35 156.98 489.98 C 168.51 486.60 180.54 484.65 190.78 489.22 C 201.01 493.80 207.51 498.11 214.25 506.75 C 220.99 515.40 224.54 527.18 224.00 538.00 C 223.46 548.81 219.13 558.49 211.75 566.75 C 204.37 575.02 197.99 579.18 186.67 582.67 C 175.36 586.16 164.22 582.60 152.23 578.77 C 140.24 574.94 142.31 562.27 136.25 553.75 C 130.18 545.23 116.08 545.91 110.92 557.92 C 105.77 569.94 116.48 575.28 125.75 580.25 C 135.03 585.22 139.77 593.95 150.78 596.22 C 161.78 598.50 174.55 603.00 186.00 600.00 C 197.45 596.99 205.99 595.02 214.92 587.92 C 223.85 580.82 228.04 574.80 233.23 565.23 C 238.41 555.66 241.55 543.12 240.99 532.01 C 240.44 520.90 236.32 510.12 230.92 501.08 C 225.52 492.04 219.37 486.01 210.75 480.25 C 202.12 474.50 191.05 469.97 181.00 469.00&#xA;M 127.00 500.00 &#xA;C 135.16 501.80 131.69 516.67 123.00 514.00 C 114.30 511.32 118.65 498.16 127.00 500.00&#xA;M 127.00 557.00 &#xA;C 134.96 558.74 131.81 573.12 123.32 570.66 C 114.84 568.21 118.24 555.08 127.00 557.00 Z" />
    </g>
    <g fill="#000000"
       fill-opacity="0.01"
       stroke="None">
        <path d="&#xA;M 75.00 476.00 &#xA;C 66.67 472.75 60.89 483.69 68.78 488.22 C 76.67 492.75 82.26 478.83 75.00 476.00 Z" />
    </g>
    <g fill="#000000"
       fill-opacity="0.01"
       stroke="None">
        <path d="&#xA;M 127.00 500.00 &#xA;C 118.65 498.16 114.30 511.32 123.00 514.00 C 131.69 516.67 135.16 501.80 127.00 500.00 Z" />
    </g>
    <g fill="#000000"
       fill-opacity="0.97"
       stroke="None">
        <path d="&#xA;M 420.00 536.00 &#xA;C 408.01 531.57 397.60 548.23 409.78 555.22 C 421.95 562.22 432.07 540.45 420.00 536.00 Z" />
    </g>
    <g fill="#000000"
       fill-opacity="0.01"
       stroke="None">
        <path d="&#xA;M 127.00 557.00 &#xA;C 118.24 555.08 114.84 568.21 123.32 570.66 C 131.81 573.12 134.96 558.74 127.00 557.00 Z" />
    </g>
    <g fill="#000000"
       fill-opacity="0.99"
       stroke="None">
        <path d="&#xA;M 627.00 628.00 &#xA;C 621.36 620.07 617.72 610.93 610.25 603.75 C 602.78 596.57 597.40 590.88 588.75 585.25 C 580.09 579.63 570.57 575.86 560.07 573.93 C 549.57 572.00 534.50 571.60 524.02 574.02 C 513.55 576.45 504.76 580.40 496.08 586.08 C 487.40 591.77 482.04 596.89 474.77 604.77 C 467.50 612.65 464.32 620.83 459.77 630.77 C 455.22 640.71 452.82 650.93 451.78 662.78 C 450.73 674.63 451.47 689.25 451.00 702.00 C 450.53 714.75 452.33 729.04 451.00 742.00 C 449.67 754.96 454.07 769.08 451.00 782.00 C 447.93 794.92 463.55 804.50 468.69 791.69 C 473.84 778.89 468.63 766.19 470.00 753.00 C 471.37 739.81 469.47 724.96 470.00 712.00 C 470.53 699.04 470.01 684.35 470.00 672.00 C 469.99 659.65 471.74 648.45 476.23 638.23 C 480.72 628.00 485.01 622.23 492.25 614.25 C 499.49 606.27 506.55 602.29 515.92 597.92 C 525.28 593.55 539.18 590.75 549.99 592.01 C 560.81 593.26 571.76 596.80 580.25 602.75 C 588.75 608.69 594.56 613.66 601.25 621.75 C 607.93 629.85 610.27 638.69 614.02 648.98 C 617.78 659.26 616.46 674.24 617.00 686.00 C 617.54 697.76 616.29 714.32 617.00 726.00 C 617.71 737.68 615.65 755.50 617.00 766.00 C 618.35 776.50 611.03 796.57 625.00 798.00 C 638.97 799.43 636.21 778.56 636.00 768.00 C 635.79 757.44 636.08 739.78 636.00 728.00 C 635.92 716.22 636.00 699.95 636.00 688.00 C 636.00 676.05 635.09 660.74 638.07 650.07 C 641.06 639.41 644.60 631.40 651.23 623.23 C 657.86 615.06 662.28 608.72 671.30 603.30 C 680.32 597.89 690.29 593.35 701.00 592.00 C 711.71 590.65 726.69 592.76 735.92 597.08 C 745.16 601.39 752.36 605.94 759.25 613.75 C 766.14 621.56 771.98 626.94 776.03 636.98 C 780.07 647.01 782.62 657.17 784.00 669.00 C 785.38 680.83 783.07 696.15 784.00 709.00 C 784.93 721.85 782.91 735.45 784.00 749.00 C 785.09 762.55 782.04 775.78 784.00 790.00 C 785.96 804.22 804.48 796.67 801.00 783.00 C 797.52 769.33 802.62 756.28 801.00 743.00 C 799.38 729.72 801.84 715.86 801.00 703.00 C 800.16 690.14 801.62 675.11 801.00 663.00 C 800.38 650.89 797.24 640.95 793.31 630.70 C 789.37 620.44 783.99 613.59 777.77 605.23 C 771.55 596.87 765.21 591.81 756.70 586.30 C 748.18 580.80 739.21 576.31 729.00 574.00 C 718.79 571.69 702.47 571.25 692.07 573.07 C 681.67 574.90 672.72 580.14 664.08 585.08 C 655.43 590.01 649.03 595.87 642.25 603.25 C 635.46 610.63 630.53 618.93 627.00 628.00 Z" />
    </g>
    <g fill="#000000"
       fill-opacity="0.99"
       stroke="None">
        <path d="&#xA;M 417.00 573.00 &#xA;C 401.47 569.95 403.60 589.89 404.00 601.00 C 404.40 612.11 403.70 629.67 404.00 642.00 C 404.30 654.33 403.61 670.34 404.00 683.00 C 404.39 695.66 403.25 711.68 404.00 724.00 C 404.75 736.32 402.39 753.92 404.00 765.00 C 405.61 776.08 397.49 794.01 411.33 797.67 C 425.17 801.33 425.06 780.92 424.00 770.00 C 422.94 759.08 424.55 741.21 424.00 729.00 C 423.45 716.79 424.41 700.53 424.00 688.00 C 423.59 675.47 424.55 659.09 424.00 647.00 C 423.45 634.91 425.05 616.59 424.00 606.00 C 422.95 595.41 428.96 575.35 417.00 573.00 Z" />
    </g>
    <g fill="#000000"
       fill-opacity="0.99"
       stroke="None">
        <path d="&#xA;M 942.00 573.00 &#xA;C 929.31 571.19 912.69 573.91 901.08 576.08 C 889.46 578.24 880.63 584.31 870.70 589.70 C 860.76 595.08 855.34 602.05 846.75 609.75 C 838.16 617.45 834.42 625.75 828.77 635.77 C 823.12 645.79 819.74 657.92 818.93 669.93 C 818.12 681.93 817.19 699.44 820.07 710.93 C 822.95 722.41 826.52 732.86 832.70 742.30 C 838.87 751.75 843.68 759.35 852.25 766.75 C 860.82 774.16 867.64 780.17 877.92 785.08 C 888.20 789.98 898.93 795.04 910.93 796.07 C 922.92 797.10 940.00 799.14 951.98 794.98 C 963.95 790.81 973.29 792.47 984.25 783.25 C 995.20 774.02 978.97 760.40 968.08 769.08 C 957.18 777.75 944.51 775.13 932.00 777.00 C 919.49 778.87 904.97 774.97 894.22 770.78 C 883.48 766.58 876.31 760.71 867.25 753.75 C 858.19 746.80 853.95 738.39 848.31 728.69 C 842.66 719.00 839.86 706.50 837.99 695.01 C 836.13 683.51 838.18 667.78 842.02 657.02 C 845.87 646.27 850.17 637.07 857.25 628.25 C 864.33 619.43 870.78 613.29 880.25 607.25 C 889.73 601.21 899.96 596.62 911.33 594.33 C 922.70 592.04 940.78 592.41 951.98 595.02 C 963.17 597.64 972.72 602.67 981.92 609.08 C 991.12 615.50 997.00 621.72 1004.25 630.75 C 1011.49 639.79 1015.16 648.53 1018.67 660.33 C 1022.19 672.12 1022.99 686.18 1023.00 700.00 C 1023.01 713.82 1022.36 729.41 1023.00 744.00 C 1023.64 758.59 1021.30 772.69 1023.00 788.00 C 1024.71 803.30 1045.45 795.86 1042.00 781.00 C 1038.54 766.14 1043.43 751.36 1042.00 737.00 C 1040.57 722.64 1042.36 706.66 1042.00 693.00 C 1041.64 679.34 1041.19 665.69 1036.78 654.22 C 1032.36 642.76 1029.18 633.51 1023.25 623.75 C 1017.32 614.00 1011.70 607.26 1003.25 599.75 C 994.79 592.25 985.27 588.47 975.23 583.77 C 965.19 579.07 952.75 574.53 942.00 573.00 Z" />
    </g>
    <g fill="#000000"
       fill-opacity="1.00"
       stroke="None">
        <path d="&#xA;M 1180.00 573.00 &#xA;C 1166.62 571.38 1148.90 573.33 1137.07 577.07 C 1125.25 580.82 1115.18 585.44 1105.70 592.70 C 1096.22 599.96 1089.27 604.95 1081.25 614.25 C 1073.24 623.56 1068.58 632.41 1064.31 644.31 C 1060.03 656.20 1056.61 668.84 1057.00 683.00 C 1057.39 697.16 1056.83 715.34 1057.00 730.00 C 1057.17 744.66 1056.94 761.39 1057.00 776.00 C 1057.06 790.61 1057.00 809.02 1057.00 823.00 C 1057.00 836.98 1057.08 856.74 1057.00 869.00 C 1056.92 881.26 1048.94 900.58 1066.99 899.99 C 1085.05 899.40 1075.61 880.29 1076.00 868.00 C 1076.39 855.71 1075.80 835.97 1076.00 822.00 C 1076.20 808.03 1075.85 789.55 1076.00 775.00 C 1076.15 760.45 1075.81 743.52 1076.00 729.00 C 1076.19 714.48 1075.64 695.85 1076.00 682.00 C 1076.36 668.15 1080.45 657.03 1085.70 645.70 C 1090.94 634.36 1096.08 626.60 1105.25 618.25 C 1114.42 609.89 1121.68 604.99 1132.93 599.93 C 1144.18 594.86 1160.15 592.17 1173.00 593.00 C 1185.85 593.83 1199.11 596.09 1209.77 602.23 C 1220.44 608.36 1228.29 613.34 1236.75 622.25 C 1245.22 631.16 1249.75 640.16 1254.68 651.32 C 1259.61 662.48 1261.41 678.34 1261.00 691.00 C 1260.59 703.66 1256.25 717.03 1250.77 727.77 C 1245.29 738.51 1239.62 745.45 1230.75 753.75 C 1221.88 762.06 1212.97 767.21 1201.68 771.68 C 1190.39 776.15 1174.31 779.34 1161.00 777.00 C 1147.69 774.66 1136.07 775.64 1126.23 764.77 C 1116.39 753.90 1098.04 775.66 1109.75 783.25 C 1121.47 790.84 1132.56 790.14 1144.98 795.02 C 1157.39 799.90 1174.58 797.36 1187.00 796.00 C 1199.42 794.64 1211.21 790.37 1221.75 784.75 C 1232.30 779.14 1239.77 772.74 1248.25 764.25 C 1256.73 755.76 1262.01 748.46 1268.08 738.08 C 1274.14 727.69 1277.67 715.21 1280.00 703.00 C 1282.33 690.79 1280.75 673.07 1277.78 661.22 C 1274.80 649.37 1269.66 638.35 1264.30 627.70 C 1258.95 617.04 1252.67 609.99 1243.75 602.25 C 1234.84 594.51 1225.96 588.33 1215.07 583.93 C 1204.19 579.52 1191.46 574.38 1180.00 573.00&#xA;M 1122.00 766.00 &#xA;C 1131.55 769.14 1126.12 786.25 1115.78 782.22 C 1105.44 778.19 1110.66 762.27 1122.00 766.00&#xA;M 1069.00 879.00 &#xA;C 1079.07 881.55 1074.85 898.80 1064.33 895.67 C 1053.81 892.54 1058.53 876.35 1069.00 879.00 Z" />
    </g>
    <g fill="#000000"
       fill-opacity="0.99"
       stroke="None">
        <path d="&#xA;M 387.00 576.00 &#xA;C 376.78 572.23 361.21 578.13 351.68 579.68 C 342.14 581.23 333.56 586.92 325.08 591.08 C 316.60 595.25 310.91 601.22 303.75 607.75 C 296.59 614.29 291.87 620.52 286.75 628.75 C 281.64 636.99 277.76 644.92 274.78 654.78 C 271.79 664.63 269.08 676.54 270.00 688.00 C 270.92 699.46 268.91 714.49 270.00 726.00 C 271.09 737.51 268.00 753.22 270.00 764.00 C 272.00 774.78 263.32 791.01 275.78 796.22 C 288.24 801.44 291.74 783.53 290.00 773.00 C 288.26 762.47 290.91 746.37 290.00 735.00 C 289.09 723.63 290.68 708.36 290.00 697.00 C 289.32 685.64 290.06 671.98 293.22 662.22 C 296.38 652.46 299.55 643.96 305.25 636.25 C 310.94 628.54 316.05 621.89 323.75 616.75 C 331.45 611.61 337.95 603.78 347.31 602.31 C 356.66 600.84 367.78 591.79 378.00 595.00 C 388.22 598.21 399.21 580.51 387.00 576.00 Z" />
    </g>
    <g fill="#000000"
       fill-opacity="0.01"
       stroke="None">
        <path d="&#xA;M 167.00 615.00 &#xA;C 158.84 611.94 152.82 624.17 161.00 628.00 C 169.18 631.83 175.13 618.04 167.00 615.00 Z" />
    </g>
    <g fill="#000000"
       fill-opacity="0.98"
       stroke="None">
        <path d="&#xA;M 890.00 675.00 &#xA;C 876.70 670.96 870.75 690.00 882.78 695.22 C 894.81 700.45 901.95 678.63 890.00 675.00 Z" />
    </g>
    <g fill="#000000"
       fill-opacity="0.96"
       stroke="None">
        <path d="&#xA;M 923.00 676.00 &#xA;C 912.27 683.93 924.58 702.86 935.75 693.75 C 946.92 684.64 934.01 670.04 923.00 676.00 Z" />
    </g>
    <g fill="#000000"
       fill-opacity="0.98"
       stroke="None">
        <path d="&#xA;M 977.00 675.00 &#xA;C 964.31 671.15 956.82 689.08 969.00 695.00 C 981.18 700.92 989.38 678.76 977.00 675.00 Z" />
    </g>
    <g fill="#F2F3F5"
       fill-opacity="1.00"
       stroke="None">
        <path d="&#xA;M 1122.00 766.00 &#xA;C 1110.66 762.27 1105.44 778.19 1115.78 782.22 C 1126.12 786.25 1131.55 769.14 1122.00 766.00 Z" />
    </g>
    <g fill="#F2F3F5"
       fill-opacity="1.00"
       stroke="None">
        <path d="&#xA;M 1069.00 879.00 &#xA;C 1058.53 876.35 1053.81 892.54 1064.33 895.67 C 1074.85 898.80 1079.07 881.55 1069.00 879.00 Z" />
    </g>
</svg>