<svg xmlns="http://www.w3.org/2000/svg"
     viewBox="0 0 225 225"
     width="225"
     height="225">
    <g fill="None"
       fill-opacity="0.0"
       stroke="#FBFDFC"
       stroke-opacity="1.00"
       stroke-width="0.3">
        <path d="&#xA;M 0.00 88.00 &#xA;C 9.14 45.67 45.69 9.05 88.00 0.00&#xA;L 0.00 0.00&#xA;L 0.00 88.00 Z" />
    </g>
    <g fill="None"
       fill-opacity="0.0"
       stroke="#057B4B"
       stroke-opacity="1.00"
       stroke-width="0.3">
        <path d="&#xA;M 0.00 88.00 &#xA;L 0.00 136.00&#xA;C 8.80 179.33 47.37 217.44 91.00 225.00&#xA;L 135.00 225.00&#xA;C 178.62 216.16 217.28 178.03 225.00 134.00&#xA;L 225.00 89.00&#xA;C 215.93 46.32 178.83 8.56 136.00 0.00&#xA;L 88.00 0.00&#xA;C 45.69 9.05 9.14 45.67 0.00 88.00&#xA;M 42.00 96.00 &#xA;C 40.28 98.27 41.27 101.34 41.00 104.00&#xA;C 55.05 97.89 50.19 115.74 55.00 121.00&#xA;C 41.41 125.53 54.96 109.90 47.74 106.26 C 40.53 102.61 38.31 118.39 44.00 121.00&#xA;C 41.48 120.44 37.70 122.19 36.00 120.00&#xA;C 38.63 113.81 40.72 100.81 34.00 96.00&#xA;C 36.31 94.45 39.68 94.62 42.00 96.00&#xA;M 153.00 121.00 &#xA;C 151.27 122.85 147.55 121.87 148.00 119.00&#xA;C 130.95 129.94 130.35 94.54 148.00 106.00&#xA;C 150.68 99.20 143.92 99.09 143.00 95.00&#xA;C 159.19 92.43 145.98 114.03 153.00 121.00&#xA;M 207.00 101.00 &#xA;C 210.82 102.34 208.92 110.05 204.32 108.66 C 199.72 107.27 203.19 99.67 207.00 101.00&#xA;M 30.00 110.00 &#xA;C 26.31 108.72 23.15 105.56 18.00 107.00&#xA;C 17.90 111.85 34.05 111.81 29.22 119.22 C 24.39 126.63 13.45 119.55 16.00 114.00&#xA;C 16.24 121.93 29.65 119.12 27.06 114.92 C 24.48 110.71 12.26 114.26 16.26 106.26 C 20.25 98.25 31.51 104.25 30.00 110.00&#xA;M 194.00 110.00 &#xA;C 192.89 108.87 183.37 102.27 182.10 108.10 C 180.83 113.93 192.42 108.35 193.75 114.25 C 195.09 120.15 189.16 122.12 184.00 122.00&#xA;C 182.93 119.08 177.29 117.44 180.00 114.00&#xA;C 180.18 122.67 194.40 118.49 191.22 114.78 C 188.03 111.06 176.23 114.04 180.26 106.26 C 184.29 98.47 195.65 104.31 194.00 110.00&#xA;M 61.00 112.00 &#xA;C 62.29 122.40 71.20 117.55 76.00 114.00&#xA;C 76.26 121.63 63.02 123.69 59.25 117.75 C 55.48 111.80 60.87 99.13 71.00 104.00 C 81.13 108.87 69.73 115.36 61.00 112.00&#xA;M 107.00 111.00 &#xA;C 101.35 113.16 105.06 99.99 96.93 106.93 C 88.79 113.86 101.22 124.26 107.00 115.00&#xA;C 107.89 124.42 91.85 122.86 91.07 112.93 C 90.30 102.99 108.44 99.54 107.00 111.00&#xA;M 116.00 104.00 &#xA;C 126.57 98.63 136.33 115.55 125.75 120.75 C 115.17 125.96 107.92 109.79 116.00 104.00&#xA;M 159.00 112.00 &#xA;C 160.30 121.36 169.78 118.97 174.00 114.00&#xA;C 175.01 121.76 161.18 123.77 157.75 117.25 C 154.33 110.72 159.84 98.90 169.67 104.33 C 179.50 109.76 166.62 114.85 159.00 112.00&#xA;M 203.00 124.00 &#xA;C 206.40 120.98 198.84 113.65 206.01 114.01 C 213.18 114.37 208.23 126.12 203.00 124.00 Z" />
    </g>
    <g fill="None"
       fill-opacity="0.0"
       stroke="#FBFDFC"
       stroke-opacity="1.00"
       stroke-width="0.3">
        <path d="&#xA;M 225.00 89.00 &#xA;L 225.00 0.00&#xA;L 136.00 0.00&#xA;C 178.83 8.56 215.93 46.32 225.00 89.00 Z" />
    </g>
    <g fill="None"
       fill-opacity="0.0"
       stroke="#E1F3EC"
       stroke-opacity="1.00"
       stroke-width="0.3">
        <path d="&#xA;M 42.00 96.00 &#xA;C 39.68 94.62 36.31 94.45 34.00 96.00&#xA;C 40.72 100.81 38.63 113.81 36.00 120.00&#xA;C 37.70 122.19 41.48 120.44 44.00 121.00&#xA;C 38.31 118.39 40.53 102.61 47.74 106.26 C 54.96 109.90 41.41 125.53 55.00 121.00&#xA;C 50.19 115.74 55.05 97.89 41.00 104.00&#xA;C 41.27 101.34 40.28 98.27 42.00 96.00 Z" />
    </g>
    <g fill="None"
       fill-opacity="0.0"
       stroke="#DDF0E7"
       stroke-opacity="1.00"
       stroke-width="0.3">
        <path d="&#xA;M 153.00 121.00 &#xA;C 145.98 114.03 159.19 92.43 143.00 95.00&#xA;C 143.92 99.09 150.68 99.20 148.00 106.00&#xA;C 130.35 94.54 130.95 129.94 148.00 119.00&#xA;C 147.55 121.87 151.27 122.85 153.00 121.00&#xA;M 143.00 107.00 &#xA;C 149.52 107.86 147.56 119.41 140.99 117.99 C 134.43 116.57 137.36 106.26 143.00 107.00 Z" />
    </g>
    <g fill="None"
       fill-opacity="0.0"
       stroke="#DFF3E9"
       stroke-opacity="1.00"
       stroke-width="0.3">
        <path d="&#xA;M 207.00 101.00 &#xA;C 203.19 99.67 199.72 107.27 204.32 108.66 C 208.92 110.05 210.82 102.34 207.00 101.00 Z" />
    </g>
    <g fill="None"
       fill-opacity="0.0"
       stroke="#CAE7DA"
       stroke-opacity="1.00"
       stroke-width="0.3">
        <path d="&#xA;M 30.00 110.00 &#xA;C 31.51 104.25 20.25 98.25 16.26 106.26 C 12.26 114.26 24.48 110.71 27.06 114.92 C 29.65 119.12 16.24 121.93 16.00 114.00&#xA;C 13.45 119.55 24.39 126.63 29.22 119.22 C 34.05 111.81 17.90 111.85 18.00 107.00&#xA;C 23.15 105.56 26.31 108.72 30.00 110.00 Z" />
    </g>
    <g fill="None"
       fill-opacity="0.0"
       stroke="#D2EBE1"
       stroke-opacity="1.00"
       stroke-width="0.3">
        <path d="&#xA;M 194.00 110.00 &#xA;C 195.65 104.31 184.29 98.47 180.26 106.26 C 176.23 114.04 188.03 111.06 191.22 114.78 C 194.40 118.49 180.18 122.67 180.00 114.00&#xA;C 177.29 117.44 182.93 119.08 184.00 122.00&#xA;C 189.16 122.12 195.09 120.15 193.75 114.25 C 192.42 108.35 180.83 113.93 182.10 108.10 C 183.37 102.27 192.89 108.87 194.00 110.00 Z" />
    </g>
    <g fill="None"
       fill-opacity="0.0"
       stroke="#D0E8DE"
       stroke-opacity="1.00"
       stroke-width="0.3">
        <path d="&#xA;M 61.00 112.00 &#xA;C 69.73 115.36 81.13 108.87 71.00 104.00 C 60.87 99.13 55.48 111.80 59.25 117.75 C 63.02 123.69 76.26 121.63 76.00 114.00&#xA;C 71.20 117.55 62.29 122.40 61.00 112.00&#xA;M 73.00 110.00 &#xA;C 69.00 110.00 65.00 110.00 61.00 110.00&#xA;C 61.07 104.37 73.90 103.78 73.00 110.00 Z" />
    </g>
    <g fill="None"
       fill-opacity="0.0"
       stroke="#D1ECDF"
       stroke-opacity="1.00"
       stroke-width="0.3">
        <path d="&#xA;M 107.00 111.00 &#xA;C 108.44 99.54 90.30 102.99 91.07 112.93 C 91.85 122.86 107.89 124.42 107.00 115.00&#xA;C 101.22 124.26 88.79 113.86 96.93 106.93 C 105.06 99.99 101.35 113.16 107.00 111.00 Z" />
    </g>
    <g fill="None"
       fill-opacity="0.0"
       stroke="#E0F2EB"
       stroke-opacity="1.00"
       stroke-width="0.3">
        <path d="&#xA;M 116.00 104.00 &#xA;C 107.92 109.79 115.17 125.96 125.75 120.75 C 136.33 115.55 126.57 98.63 116.00 104.00&#xA;M 125.00 107.00 &#xA;C 130.90 110.02 125.61 122.86 118.78 118.22 C 111.94 113.58 118.12 103.48 125.00 107.00 Z" />
    </g>
    <g fill="None"
       fill-opacity="0.0"
       stroke="#D4EEE3"
       stroke-opacity="1.00"
       stroke-width="0.3">
        <path d="&#xA;M 159.00 112.00 &#xA;C 166.62 114.85 179.50 109.76 169.67 104.33 C 159.84 98.90 154.33 110.72 157.75 117.25 C 161.18 123.77 175.01 121.76 174.00 114.00&#xA;C 169.78 118.97 160.30 121.36 159.00 112.00&#xA;M 171.00 110.00 &#xA;C 167.00 110.00 163.00 110.00 159.00 110.00&#xA;C 159.07 104.37 171.90 103.78 171.00 110.00 Z" />
    </g>
    <g fill="None"
       fill-opacity="0.0"
       stroke="#157348"
       stroke-opacity="1.00"
       stroke-width="0.3">
        <path d="&#xA;M 73.00 110.00 &#xA;C 73.90 103.78 61.07 104.37 61.00 110.00&#xA;C 65.00 110.00 69.00 110.00 73.00 110.00 Z" />
    </g>
    <g fill="None"
       fill-opacity="0.0"
       stroke="#20734D"
       stroke-opacity="1.00"
       stroke-width="0.3">
        <path d="&#xA;M 171.00 110.00 &#xA;C 171.90 103.78 159.07 104.37 159.00 110.00&#xA;C 163.00 110.00 167.00 110.00 171.00 110.00 Z" />
    </g>
    <g fill="None"
       fill-opacity="0.0"
       stroke="#17784B"
       stroke-opacity="1.00"
       stroke-width="0.3">
        <path d="&#xA;M 125.00 107.00 &#xA;C 118.12 103.48 111.94 113.58 118.78 118.22 C 125.61 122.86 130.90 110.02 125.00 107.00 Z" />
    </g>
    <g fill="None"
       fill-opacity="0.0"
       stroke="#1B7A4E"
       stroke-opacity="1.00"
       stroke-width="0.3">
        <path d="&#xA;M 143.00 107.00 &#xA;C 137.36 106.26 134.43 116.57 140.99 117.99 C 147.56 119.41 149.52 107.86 143.00 107.00 Z" />
    </g>
    <g fill="None"
       fill-opacity="0.0"
       stroke="#E5F4EC"
       stroke-opacity="1.00"
       stroke-width="0.3">
        <path d="&#xA;M 203.00 124.00 &#xA;C 208.23 126.12 213.18 114.37 206.01 114.01 C 198.84 113.65 206.40 120.98 203.00 124.00 Z" />
    </g>
    <g fill="None"
       fill-opacity="0.0"
       stroke="#FBFDFC"
       stroke-opacity="1.00"
       stroke-width="0.3">
        <path d="&#xA;M 135.00 225.00 &#xA;L 225.00 225.00&#xA;L 225.00 134.00&#xA;C 217.28 178.03 178.62 216.16 135.00 225.00 Z" />
    </g>
    <g fill="None"
       fill-opacity="0.0"
       stroke="#FBFDFC"
       stroke-opacity="1.00"
       stroke-width="0.3">
        <path d="&#xA;M 0.00 225.00 &#xA;L 91.00 225.00&#xA;C 47.37 217.44 8.80 179.33 0.00 136.00&#xA;L 0.00 225.00 Z" />
    </g>
    <g fill="#FBFDFC"
       fill-opacity="1.00"
       stroke="None">
        <path d="&#xA;M 0.00 88.00 &#xA;C 9.14 45.67 45.69 9.05 88.00 0.00&#xA;L 0.00 0.00&#xA;L 0.00 88.00 Z" />
    </g>
    <g fill="#057B4B"
       fill-opacity="1.00"
       stroke="None">
        <path d="&#xA;M 0.00 88.00 &#xA;L 0.00 136.00&#xA;C 8.80 179.33 47.37 217.44 91.00 225.00&#xA;L 135.00 225.00&#xA;C 178.62 216.16 217.28 178.03 225.00 134.00&#xA;L 225.00 89.00&#xA;C 215.93 46.32 178.83 8.56 136.00 0.00&#xA;L 88.00 0.00&#xA;C 45.69 9.05 9.14 45.67 0.00 88.00&#xA;M 42.00 96.00 &#xA;C 40.28 98.27 41.27 101.34 41.00 104.00&#xA;C 55.05 97.89 50.19 115.74 55.00 121.00&#xA;C 41.41 125.53 54.96 109.90 47.74 106.26 C 40.53 102.61 38.31 118.39 44.00 121.00&#xA;C 41.48 120.44 37.70 122.19 36.00 120.00&#xA;C 38.63 113.81 40.72 100.81 34.00 96.00&#xA;C 36.31 94.45 39.68 94.62 42.00 96.00&#xA;M 153.00 121.00 &#xA;C 151.27 122.85 147.55 121.87 148.00 119.00&#xA;C 130.95 129.94 130.35 94.54 148.00 106.00&#xA;C 150.68 99.20 143.92 99.09 143.00 95.00&#xA;C 159.19 92.43 145.98 114.03 153.00 121.00&#xA;M 207.00 101.00 &#xA;C 210.82 102.34 208.92 110.05 204.32 108.66 C 199.72 107.27 203.19 99.67 207.00 101.00&#xA;M 30.00 110.00 &#xA;C 26.31 108.72 23.15 105.56 18.00 107.00&#xA;C 17.90 111.85 34.05 111.81 29.22 119.22 C 24.39 126.63 13.45 119.55 16.00 114.00&#xA;C 16.24 121.93 29.65 119.12 27.06 114.92 C 24.48 110.71 12.26 114.26 16.26 106.26 C 20.25 98.25 31.51 104.25 30.00 110.00&#xA;M 194.00 110.00 &#xA;C 192.89 108.87 183.37 102.27 182.10 108.10 C 180.83 113.93 192.42 108.35 193.75 114.25 C 195.09 120.15 189.16 122.12 184.00 122.00&#xA;C 182.93 119.08 177.29 117.44 180.00 114.00&#xA;C 180.18 122.67 194.40 118.49 191.22 114.78 C 188.03 111.06 176.23 114.04 180.26 106.26 C 184.29 98.47 195.65 104.31 194.00 110.00&#xA;M 61.00 112.00 &#xA;C 62.29 122.40 71.20 117.55 76.00 114.00&#xA;C 76.26 121.63 63.02 123.69 59.25 117.75 C 55.48 111.80 60.87 99.13 71.00 104.00 C 81.13 108.87 69.73 115.36 61.00 112.00&#xA;M 107.00 111.00 &#xA;C 101.35 113.16 105.06 99.99 96.93 106.93 C 88.79 113.86 101.22 124.26 107.00 115.00&#xA;C 107.89 124.42 91.85 122.86 91.07 112.93 C 90.30 102.99 108.44 99.54 107.00 111.00&#xA;M 116.00 104.00 &#xA;C 126.57 98.63 136.33 115.55 125.75 120.75 C 115.17 125.96 107.92 109.79 116.00 104.00&#xA;M 159.00 112.00 &#xA;C 160.30 121.36 169.78 118.97 174.00 114.00&#xA;C 175.01 121.76 161.18 123.77 157.75 117.25 C 154.33 110.72 159.84 98.90 169.67 104.33 C 179.50 109.76 166.62 114.85 159.00 112.00&#xA;M 203.00 124.00 &#xA;C 206.40 120.98 198.84 113.65 206.01 114.01 C 213.18 114.37 208.23 126.12 203.00 124.00 Z" />
    </g>
    <g fill="#FBFDFC"
       fill-opacity="1.00"
       stroke="None">
        <path d="&#xA;M 225.00 89.00 &#xA;L 225.00 0.00&#xA;L 136.00 0.00&#xA;C 178.83 8.56 215.93 46.32 225.00 89.00 Z" />
    </g>
    <g fill="#E1F3EC"
       fill-opacity="1.00"
       stroke="None">
        <path d="&#xA;M 42.00 96.00 &#xA;C 39.68 94.62 36.31 94.45 34.00 96.00&#xA;C 40.72 100.81 38.63 113.81 36.00 120.00&#xA;C 37.70 122.19 41.48 120.44 44.00 121.00&#xA;C 38.31 118.39 40.53 102.61 47.74 106.26 C 54.96 109.90 41.41 125.53 55.00 121.00&#xA;C 50.19 115.74 55.05 97.89 41.00 104.00&#xA;C 41.27 101.34 40.28 98.27 42.00 96.00 Z" />
    </g>
    <g fill="#DDF0E7"
       fill-opacity="1.00"
       stroke="None">
        <path d="&#xA;M 153.00 121.00 &#xA;C 145.98 114.03 159.19 92.43 143.00 95.00&#xA;C 143.92 99.09 150.68 99.20 148.00 106.00&#xA;C 130.35 94.54 130.95 129.94 148.00 119.00&#xA;C 147.55 121.87 151.27 122.85 153.00 121.00&#xA;M 143.00 107.00 &#xA;C 149.52 107.86 147.56 119.41 140.99 117.99 C 134.43 116.57 137.36 106.26 143.00 107.00 Z" />
    </g>
    <g fill="#DFF3E9"
       fill-opacity="1.00"
       stroke="None">
        <path d="&#xA;M 207.00 101.00 &#xA;C 203.19 99.67 199.72 107.27 204.32 108.66 C 208.92 110.05 210.82 102.34 207.00 101.00 Z" />
    </g>
    <g fill="#CAE7DA"
       fill-opacity="1.00"
       stroke="None">
        <path d="&#xA;M 30.00 110.00 &#xA;C 31.51 104.25 20.25 98.25 16.26 106.26 C 12.26 114.26 24.48 110.71 27.06 114.92 C 29.65 119.12 16.24 121.93 16.00 114.00&#xA;C 13.45 119.55 24.39 126.63 29.22 119.22 C 34.05 111.81 17.90 111.85 18.00 107.00&#xA;C 23.15 105.56 26.31 108.72 30.00 110.00 Z" />
    </g>
    <g fill="#D2EBE1"
       fill-opacity="1.00"
       stroke="None">
        <path d="&#xA;M 194.00 110.00 &#xA;C 195.65 104.31 184.29 98.47 180.26 106.26 C 176.23 114.04 188.03 111.06 191.22 114.78 C 194.40 118.49 180.18 122.67 180.00 114.00&#xA;C 177.29 117.44 182.93 119.08 184.00 122.00&#xA;C 189.16 122.12 195.09 120.15 193.75 114.25 C 192.42 108.35 180.83 113.93 182.10 108.10 C 183.37 102.27 192.89 108.87 194.00 110.00 Z" />
    </g>
    <g fill="#D0E8DE"
       fill-opacity="1.00"
       stroke="None">
        <path d="&#xA;M 61.00 112.00 &#xA;C 69.73 115.36 81.13 108.87 71.00 104.00 C 60.87 99.13 55.48 111.80 59.25 117.75 C 63.02 123.69 76.26 121.63 76.00 114.00&#xA;C 71.20 117.55 62.29 122.40 61.00 112.00&#xA;M 73.00 110.00 &#xA;C 69.00 110.00 65.00 110.00 61.00 110.00&#xA;C 61.07 104.37 73.90 103.78 73.00 110.00 Z" />
    </g>
    <g fill="#D1ECDF"
       fill-opacity="1.00"
       stroke="None">
        <path d="&#xA;M 107.00 111.00 &#xA;C 108.44 99.54 90.30 102.99 91.07 112.93 C 91.85 122.86 107.89 124.42 107.00 115.00&#xA;C 101.22 124.26 88.79 113.86 96.93 106.93 C 105.06 99.99 101.35 113.16 107.00 111.00 Z" />
    </g>
    <g fill="#E0F2EB"
       fill-opacity="1.00"
       stroke="None">
        <path d="&#xA;M 116.00 104.00 &#xA;C 107.92 109.79 115.17 125.96 125.75 120.75 C 136.33 115.55 126.57 98.63 116.00 104.00&#xA;M 125.00 107.00 &#xA;C 130.90 110.02 125.61 122.86 118.78 118.22 C 111.94 113.58 118.12 103.48 125.00 107.00 Z" />
    </g>
    <g fill="#D4EEE3"
       fill-opacity="1.00"
       stroke="None">
        <path d="&#xA;M 159.00 112.00 &#xA;C 166.62 114.85 179.50 109.76 169.67 104.33 C 159.84 98.90 154.33 110.72 157.75 117.25 C 161.18 123.77 175.01 121.76 174.00 114.00&#xA;C 169.78 118.97 160.30 121.36 159.00 112.00&#xA;M 171.00 110.00 &#xA;C 167.00 110.00 163.00 110.00 159.00 110.00&#xA;C 159.07 104.37 171.90 103.78 171.00 110.00 Z" />
    </g>
    <g fill="#157348"
       fill-opacity="1.00"
       stroke="None">
        <path d="&#xA;M 73.00 110.00 &#xA;C 73.90 103.78 61.07 104.37 61.00 110.00&#xA;C 65.00 110.00 69.00 110.00 73.00 110.00 Z" />
    </g>
    <g fill="#20734D"
       fill-opacity="1.00"
       stroke="None">
        <path d="&#xA;M 171.00 110.00 &#xA;C 171.90 103.78 159.07 104.37 159.00 110.00&#xA;C 163.00 110.00 167.00 110.00 171.00 110.00 Z" />
    </g>
    <g fill="#17784B"
       fill-opacity="1.00"
       stroke="None">
        <path d="&#xA;M 125.00 107.00 &#xA;C 118.12 103.48 111.94 113.58 118.78 118.22 C 125.61 122.86 130.90 110.02 125.00 107.00 Z" />
    </g>
    <g fill="#1B7A4E"
       fill-opacity="1.00"
       stroke="None">
        <path d="&#xA;M 143.00 107.00 &#xA;C 137.36 106.26 134.43 116.57 140.99 117.99 C 147.56 119.41 149.52 107.86 143.00 107.00 Z" />
    </g>
    <g fill="#E5F4EC"
       fill-opacity="1.00"
       stroke="None">
        <path d="&#xA;M 203.00 124.00 &#xA;C 208.23 126.12 213.18 114.37 206.01 114.01 C 198.84 113.65 206.40 120.98 203.00 124.00 Z" />
    </g>
    <g fill="#FBFDFC"
       fill-opacity="1.00"
       stroke="None">
        <path d="&#xA;M 135.00 225.00 &#xA;L 225.00 225.00&#xA;L 225.00 134.00&#xA;C 217.28 178.03 178.62 216.16 135.00 225.00 Z" />
    </g>
    <g fill="#FBFDFC"
       fill-opacity="1.00"
       stroke="None">
        <path d="&#xA;M 0.00 225.00 &#xA;L 91.00 225.00&#xA;C 47.37 217.44 8.80 179.33 0.00 136.00&#xA;L 0.00 225.00 Z" />
    </g>
</svg>